<svg xmlns="http://www.w3.org/2000/svg" width="2560" height="2560" viewBox="0 0 2560 2560" version="1.1"><path d="M 1208.220 627.578 C 1198.896 632.224, 1192.750 642.478, 1192.750 653.387 C 1192.750 679.611, 1225.701 692.049, 1242.994 672.354 C 1248.188 666.438, 1249.953 661.522, 1249.978 652.899 C 1249.996 646.629, 1249.547 644.440, 1247.416 640.399 C 1241.672 629.507, 1234.086 625, 1221.500 625 C 1214.791 625, 1212.500 625.445, 1208.220 627.578 M 1340.200 629.058 C 1325.697 636.305, 1320.033 652.226, 1326.879 666.500 C 1332.180 677.552, 1341.204 683.376, 1353 683.357 C 1364.422 683.339, 1373.730 677.520, 1379.137 667.017 C 1380.920 663.554, 1381.435 660.940, 1381.405 655.517 C 1381.279 633.423, 1359.479 619.424, 1340.200 629.058 M 1082.205 651.831 C 1074.775 654.486, 1070.026 658.684, 1066.250 665.934 C 1060.019 677.899, 1062.437 691.934, 1072.214 700.540 C 1083.323 710.318, 1099.294 710.288, 1110.768 700.466 C 1120.232 692.366, 1123.091 677.638, 1117.388 666.367 C 1110.741 653.229, 1095.691 647.011, 1082.205 651.831 M 1472.275 656.654 C 1466.173 658.815, 1458.712 665.935, 1455.962 672.221 C 1452.945 679.117, 1452.859 688.631, 1455.753 695.174 C 1459.917 704.589, 1469.869 711.621, 1480.500 712.661 C 1490.432 713.633, 1502.441 707.272, 1507.390 698.418 C 1518.485 678.566, 1504.578 654.760, 1482.072 655.079 C 1479.007 655.122, 1474.599 655.831, 1472.275 656.654 M 965.344 703.095 C 951.821 705.597, 941.818 717.411, 941.796 730.907 C 941.768 747.525, 954.087 759.997, 970.500 759.968 C 978.729 759.954, 983.792 757.989, 989.959 752.418 C 996.744 746.288, 998.484 742.022, 998.493 731.500 C 998.499 723.520, 998.195 721.980, 995.805 717.916 C 989.226 706.724, 977.242 700.893, 965.344 703.095 M 1594.803 711.344 C 1581.766 715.007, 1573.824 725.509, 1573.824 739.085 C 1573.824 751.060, 1580.007 760.486, 1591.139 765.482 C 1596.436 767.859, 1598.227 768.180, 1603.900 767.772 C 1620.116 766.603, 1631.016 754.854, 1630.990 738.572 C 1630.961 720.231, 1612.531 706.364, 1594.803 711.344 M 1278.558 739.492 C 1273.394 741.332, 1270.207 743.764, 1266.312 748.840 C 1262.412 753.921, 1261.387 759.730, 1263.011 767.553 C 1264.028 772.450, 1265.006 774.135, 1269.357 778.477 C 1273.033 782.147, 1275.861 783.990, 1279.273 784.942 C 1289.806 787.879, 1300.776 783.677, 1306.369 774.563 C 1317.849 755.856, 1299.076 732.183, 1278.558 739.492 M 1172.610 748.737 C 1162.574 749.770, 1153.983 760.649, 1154.010 772.288 C 1154.022 777.375, 1157.679 785.499, 1161.624 789.197 C 1170.636 797.646, 1185.714 797.209, 1195.247 788.221 C 1198.654 785.009, 1202.003 776.313, 1201.990 770.712 C 1201.977 765.068, 1198.096 757.049, 1193.573 753.321 C 1187.813 748.573, 1183.454 747.620, 1172.610 748.737 M 1387.137 752.369 C 1378.825 755.377, 1371 766.117, 1371 774.518 C 1371 781.420, 1373.671 787.418, 1378.937 792.345 C 1397.022 809.260, 1424.625 791.798, 1417.928 767.679 C 1415.575 759.207, 1404.167 750.951, 1395 751.086 C 1392.525 751.122, 1388.987 751.700, 1387.137 752.369 M 856 779.875 C 842.800 784.222, 834 795.527, 834 808.141 C 834 829.035, 856.375 842.901, 875.217 833.682 C 885.745 828.531, 891.468 819.281, 891.440 807.462 C 891.413 796.384, 885.822 787.540, 875.519 782.277 C 870.211 779.565, 860.551 778.377, 856 779.875 M 1066.902 780.463 C 1045.188 786.378, 1043.032 816.983, 1063.718 825.652 C 1067.669 827.307, 1075.945 827.396, 1081.142 825.839 C 1096.568 821.217, 1102.115 800.673, 1091.337 788.080 C 1085.404 781.149, 1075.601 778.093, 1066.902 780.463 M 1488.473 788.935 C 1480.097 792.666, 1474.547 801.514, 1474.583 811.078 C 1474.625 822.074, 1480.961 830.479, 1491.524 833.550 C 1509.950 838.906, 1526.471 822.167, 1521.183 803.500 C 1517.564 790.726, 1501.005 783.353, 1488.473 788.935 M 1695.137 793.089 C 1677.474 801.916, 1673.839 824.839, 1687.876 838.876 C 1692.270 843.270, 1696.736 845.523, 1704.278 847.148 C 1714.730 849.401, 1728.548 842.071, 1734.009 831.377 C 1737.288 824.956, 1737.540 812.664, 1734.518 806.500 C 1727.291 791.756, 1709.756 785.784, 1695.137 793.089 M 966.920 835.479 C 952.887 842.791, 949.827 861.746, 960.809 873.342 C 967.985 880.919, 980.579 882.781, 989.457 877.578 C 1001.742 870.379, 1005.465 854.853, 997.679 843.293 C 991.142 833.588, 977.299 830.072, 966.920 835.479 M 1589 844.060 C 1580.137 845.297, 1574.597 849.039, 1570.853 856.318 C 1566.514 864.755, 1567.477 874.408, 1573.435 882.211 C 1577.759 887.874, 1582.723 890.298, 1591 890.788 C 1596.652 891.123, 1598.217 890.797, 1603 888.293 C 1626.328 876.076, 1615.044 840.427, 1589 844.060 M 1240.457 851.863 C 1234.213 855.671, 1229.982 863.028, 1230.028 870 C 1230.050 873.420, 1233.227 880.032, 1236.132 882.702 C 1246.759 892.472, 1264.341 887.590, 1268.043 873.842 C 1270.378 865.167, 1266.182 855.348, 1258.684 851.943 C 1253.160 849.436, 1244.500 849.397, 1240.457 851.863 M 1327.595 855.201 C 1321.290 858.913, 1317.740 864.096, 1317.221 870.344 C 1315.683 888.901, 1337.591 898.885, 1350.128 885.339 C 1354.064 881.086, 1355.002 878.668, 1354.984 872.816 C 1354.964 866.480, 1352.236 861.088, 1346.861 856.760 C 1341.709 852.612, 1333.167 851.920, 1327.595 855.201 M 1156.007 865.593 C 1148.470 868.861, 1144.677 874.689, 1144.677 883 C 1144.677 889.102, 1146.378 893.134, 1150.661 897.186 C 1154.411 900.735, 1158.013 902, 1164.365 902 C 1177.614 902, 1187.076 886.845, 1181.092 875.210 C 1176.016 865.343, 1165.702 861.389, 1156.007 865.593 M 1412.500 876.605 C 1404.879 880.766, 1401.663 885.991, 1401.737 894.094 C 1401.840 905.402, 1409.684 913, 1421.255 913 C 1439.442 913, 1446.919 888.254, 1431.762 878.224 C 1426.710 874.880, 1417.134 874.076, 1412.500 876.605 M 765.173 877.424 C 755.249 880.659, 748.150 888.348, 745.486 898.749 C 742.199 911.580, 748.671 925.125, 761.182 931.594 C 766.085 934.130, 776.655 934.607, 782.787 932.571 C 793.959 928.860, 802 917.811, 802 906.170 C 802 897.824, 800.579 893.300, 796.092 887.363 C 789.304 878.382, 775.675 874.001, 765.173 877.424 M 1785.324 890.638 C 1779.439 892.723, 1772.141 899.503, 1769.366 905.462 C 1764.462 915.993, 1766.865 929.960, 1774.976 938.072 C 1783.303 946.398, 1794.661 948.970, 1805.387 944.956 C 1815.938 941.009, 1822.944 931.456, 1823.775 919.884 C 1824.454 910.414, 1822.103 903.972, 1815.589 897.458 C 1807.618 889.487, 1795.975 886.863, 1785.324 890.638 M 1076.145 897.070 C 1062.903 902.374, 1059.676 919.938, 1070.153 929.683 C 1076.514 935.600, 1089.422 935.368, 1096.355 929.212 C 1101.091 925.006, 1103.350 914.704, 1100.936 908.315 C 1097.564 899.389, 1084.805 893.602, 1076.145 897.070 M 891.775 904.918 C 885.887 905.751, 879.509 910.111, 875.545 916.014 C 871.759 921.651, 870.870 930.700, 873.462 937.233 C 879.524 952.519, 900.009 957.038, 911.838 945.699 C 921.629 936.314, 922.292 921.853, 913.352 912.675 C 906.878 906.028, 900.396 903.698, 891.775 904.918 M 1494.500 913.929 C 1490.048 915.003, 1487.616 916.534, 1484.223 920.399 C 1480.194 924.988, 1478.248 933.193, 1479.960 938.378 C 1484.698 952.734, 1503.626 956.553, 1513.265 945.097 C 1518.085 939.368, 1518.947 930.880, 1515.417 923.898 C 1513.462 920.031, 1507.563 915.250, 1503.277 914.060 C 1499.095 912.899, 1498.787 912.894, 1494.500 913.929 M 1663 919.672 C 1656.967 922.274, 1652.870 926.083, 1650.402 931.383 C 1643.563 946.072, 1652.527 963.372, 1668.086 965.512 C 1686.286 968.015, 1700.401 950.838, 1694.064 933.899 C 1690.289 923.811, 1682.163 917.993, 1672 918.104 C 1668.975 918.136, 1664.925 918.842, 1663 919.672 M 1002.083 946.207 C 996.804 948.948, 992.366 955.373, 991.427 961.636 C 990.096 970.514, 997.456 980.126, 1007.346 982.425 C 1011.723 983.442, 1020.132 980.545, 1024.162 976.631 C 1030.507 970.469, 1031.475 960.007, 1026.419 952.248 C 1021.681 944.977, 1010.024 942.083, 1002.083 946.207 M 1289 948.752 C 1284.296 951.102, 1280.691 958.024, 1281.364 963.413 C 1282.303 970.921, 1288.326 976.314, 1295.900 976.426 C 1306.852 976.589, 1314.072 965.276, 1309.357 955.340 C 1305.834 947.915, 1296.635 944.938, 1289 948.752 M 1225.500 951.730 C 1220.134 952.499, 1215 959.236, 1215 965.508 C 1215 969.463, 1218.723 975.860, 1222.290 978.035 C 1226.152 980.390, 1232.940 980.599, 1237.021 978.489 C 1241.254 976.300, 1245 970.304, 1245 965.718 C 1245 960.997, 1243.024 957.039, 1238.959 953.619 C 1235.840 950.994, 1233.206 950.625, 1225.500 951.730 M 1354.990 959.250 C 1349.724 962.834, 1347.656 966.338, 1347.574 971.821 C 1347.533 974.500, 1348.158 977.923, 1348.963 979.429 C 1350.887 983.026, 1357.798 987.004, 1362.088 986.984 C 1366.768 986.961, 1372.913 983.211, 1375.146 979.016 C 1382.010 966.116, 1366.807 951.207, 1354.990 959.250 M 1156.658 970.995 C 1152.177 974.930, 1150.617 978.908, 1151.273 984.729 C 1151.708 988.592, 1152.523 990.098, 1155.862 993.213 C 1159.503 996.608, 1160.470 997, 1165.211 996.996 C 1172.049 996.991, 1176.492 994.335, 1179.036 988.729 C 1180.092 986.403, 1180.956 983.600, 1180.956 982.500 C 1180.956 981.400, 1180.092 978.597, 1179.036 976.271 C 1176.502 970.689, 1172.044 968.009, 1165.285 968.004 C 1160.915 968.001, 1159.517 968.486, 1156.658 970.995 M 1558.459 969.880 C 1547.547 974.836, 1543.918 987.731, 1550.714 997.401 C 1558.058 1007.849, 1569.648 1009.638, 1578.670 1001.716 C 1582.615 998.253, 1585.946 991.995, 1585.972 988 C 1586.043 977.235, 1577.075 968.044, 1566.500 968.044 C 1564.300 968.044, 1560.681 968.870, 1558.459 969.880 M 1418.966 981.820 C 1413.443 984.268, 1409.009 990.624, 1409.004 996.102 C 1408.997 1002.806, 1415.530 1009.725, 1422.786 1010.698 C 1428.259 1011.432, 1435.003 1007.620, 1437.486 1002.389 C 1439.495 998.156, 1439.002 991.178, 1436.416 987.231 C 1433.512 982.800, 1423.653 979.743, 1418.966 981.820 M 697.479 991.741 C 690.966 994.071, 686.528 997.288, 682.885 1002.318 C 666.949 1024.317, 688.122 1054.211, 714.259 1046.613 C 721.661 1044.461, 727.589 1039.753, 731.398 1033 C 734.197 1028.037, 734.499 1026.670, 734.488 1019 C 734.478 1012.221, 734.038 1009.677, 732.313 1006.437 C 725.529 993.694, 710.151 987.205, 697.479 991.741 M 818.864 994.793 C 809.170 999.842, 804.280 1011.572, 807.398 1022.299 C 811.614 1036.801, 827.753 1043.758, 841.229 1036.883 C 855.612 1029.546, 858.529 1010.473, 847.028 998.972 C 839.420 991.365, 828.546 989.752, 818.864 994.793 M 1100.020 999.752 C 1088.644 1005.467, 1089.595 1022.007, 1101.564 1026.578 C 1107.592 1028.880, 1112.418 1027.817, 1117.071 1023.164 C 1122.144 1018.091, 1123.005 1012.828, 1119.810 1006.421 C 1115.929 998.637, 1107.734 995.876, 1100.020 999.752 M 1848.435 1006.378 C 1841.606 1009.558, 1836.947 1013.836, 1833.974 1019.657 C 1830.684 1026.097, 1830.424 1039.331, 1833.467 1045.467 C 1838.348 1055.311, 1848.134 1061.307, 1859.402 1061.357 C 1871.054 1061.409, 1880.505 1055.755, 1885.760 1045.590 C 1889.355 1038.635, 1889.504 1027.667, 1886.093 1021 C 1878.646 1006.443, 1862.096 1000.017, 1848.435 1006.378 M 943 1007.594 C 941.075 1008.428, 938.226 1010.323, 936.668 1011.805 C 928.001 1020.053, 929.499 1035.819, 939.540 1042.025 C 943.824 1044.673, 954.135 1045.021, 958.654 1042.670 C 964.723 1039.514, 969.012 1032.504, 968.978 1025.800 C 968.908 1012.082, 955.054 1002.373, 943 1007.594 M 1726.534 1008.254 C 1720.634 1009.812, 1712.711 1018.118, 1711.128 1024.407 C 1708.108 1036.400, 1712.768 1046.791, 1723.548 1052.098 C 1729.083 1054.823, 1730.737 1055.187, 1735.892 1054.814 C 1747.817 1053.952, 1756.948 1044.864, 1757.806 1033.005 C 1758.379 1025.081, 1756.029 1019.236, 1750.002 1013.599 C 1743.311 1007.340, 1736.162 1005.712, 1726.534 1008.254 M 1473.303 1019.007 C 1465.851 1022.320, 1462.694 1032.705, 1466.995 1039.759 C 1472.772 1049.235, 1486.761 1049.317, 1492.378 1039.909 C 1496.937 1032.274, 1494.203 1023.373, 1486.034 1019.250 C 1480.732 1016.574, 1478.857 1016.538, 1473.303 1019.007 M 1259.661 1030.612 C 1249.830 1040.443, 1264.262 1056.382, 1274.894 1047.436 C 1278.185 1044.666, 1280.156 1039.421, 1279.277 1035.774 C 1278.975 1034.523, 1277.581 1032.263, 1276.177 1030.750 C 1273.972 1028.373, 1272.857 1028, 1267.949 1028 C 1263.163 1028, 1261.863 1028.410, 1259.661 1030.612 M 1310.400 1033.400 C 1307.775 1036.025, 1307 1037.632, 1307 1040.450 C 1307 1047.348, 1312.051 1053.006, 1318.200 1052.996 C 1321.930 1052.990, 1326.998 1049.249, 1328.658 1045.276 C 1331.861 1037.610, 1326.385 1030.012, 1317.650 1030.004 C 1314.602 1030.001, 1313.092 1030.708, 1310.400 1033.400 M 1211.381 1036.910 C 1208.277 1038.802, 1206 1043.289, 1206 1047.514 C 1206 1051.914, 1212.965 1058, 1218 1058 C 1223.958 1058, 1229 1052.247, 1229 1045.450 C 1229 1042.632, 1228.225 1041.025, 1225.600 1038.400 C 1221.579 1034.379, 1216.417 1033.838, 1211.381 1036.910 M 1613 1037.677 C 1597.220 1045.776, 1600.509 1068.290, 1618.166 1073.045 C 1633.069 1077.058, 1645.925 1059.806, 1638.879 1045.250 C 1636.077 1039.461, 1630.479 1035.778, 1623.690 1035.255 C 1619.463 1034.929, 1617.480 1035.378, 1613 1037.677 M 1049.500 1040.964 C 1040.228 1044.847, 1037.563 1058.646, 1044.831 1065.140 C 1048.239 1068.185, 1054.751 1070.357, 1057.643 1069.413 C 1066.440 1066.541, 1069.500 1062.648, 1069.500 1054.331 C 1069.500 1049.139, 1069.104 1047.732, 1067 1045.452 C 1062.605 1040.688, 1054.886 1038.709, 1049.500 1040.964 M 1359.400 1046.400 C 1356.498 1049.302, 1356 1050.488, 1356 1054.500 C 1356 1058.512, 1356.498 1059.698, 1359.400 1062.600 C 1362.192 1065.392, 1363.554 1066, 1367.018 1066 C 1370.584 1066, 1371.835 1065.400, 1375.118 1062.118 C 1379.420 1057.816, 1379.978 1054.863, 1377.484 1049.607 C 1375.576 1045.587, 1371.274 1043, 1366.496 1043 C 1363.626 1043, 1362.040 1043.760, 1359.400 1046.400 M 1163.707 1055.016 C 1160.603 1057.458, 1158.568 1063.127, 1159.476 1066.803 C 1160.421 1070.626, 1164.798 1074.872, 1168.514 1075.569 C 1179.681 1077.663, 1186.561 1063.359, 1178.046 1055.750 C 1174.164 1052.281, 1167.610 1051.946, 1163.707 1055.016 M 1523.500 1064.929 C 1518.445 1066.149, 1516.092 1067.899, 1514.003 1071.994 C 1511.241 1077.407, 1511.423 1082.687, 1514.529 1087.257 C 1517.659 1091.864, 1521.636 1094, 1527.082 1094 C 1538.943 1094, 1545.825 1080.020, 1538.618 1070.568 C 1535.907 1067.011, 1530.648 1063.874, 1527.782 1064.102 C 1527.077 1064.159, 1525.150 1064.531, 1523.500 1064.929 M 1405.143 1068.533 C 1397.036 1075.355, 1400.399 1087.305, 1410.819 1088.703 C 1415.815 1089.373, 1420.349 1086.893, 1422.530 1082.296 C 1427.554 1071.707, 1414.063 1061.027, 1405.143 1068.533 M 895.500 1081.890 C 885.989 1086.280, 881.705 1096.570, 885.553 1105.782 C 888.742 1113.415, 895.394 1118.203, 902.929 1118.288 C 913.126 1118.403, 923.024 1109.025, 922.990 1099.282 C 922.978 1095.862, 918.973 1087.112, 916.355 1084.788 C 910.957 1079.996, 902.231 1078.784, 895.500 1081.890 M 1123.452 1081.406 C 1119.345 1083.195, 1117 1087.069, 1117 1092.065 C 1117 1097.724, 1122.042 1103, 1127.450 1103 C 1134.348 1103, 1140.006 1097.949, 1139.996 1091.800 C 1139.988 1086.636, 1133.319 1079.930, 1128.300 1080.039 C 1127.310 1080.061, 1125.129 1080.676, 1123.452 1081.406 M 778.500 1091.873 C 770.017 1094.073, 762.972 1101.636, 760.852 1110.819 C 758.592 1120.613, 764.608 1132.046, 774.429 1136.619 C 788.562 1143.200, 804.506 1134.857, 807.882 1119.113 C 809.966 1109.398, 804.570 1098.391, 795.593 1094.045 C 790.700 1091.676, 783.021 1090.701, 778.500 1091.873 M 1007.013 1093.275 C 1001.695 1096.087, 999 1100.795, 999 1107.273 C 999 1111.458, 999.492 1112.605, 1002.815 1116.168 C 1006.076 1119.663, 1007.360 1120.328, 1011.639 1120.739 C 1018.672 1121.415, 1024.065 1118.562, 1026.926 1112.652 C 1028.702 1108.984, 1028.906 1107.538, 1028.133 1104.099 C 1026.811 1098.211, 1024.461 1095.113, 1019.672 1092.938 C 1014.240 1090.472, 1012.211 1090.526, 1007.013 1093.275 M 1446.198 1099.673 C 1440.507 1102.478, 1438.464 1109.129, 1441.494 1114.989 C 1443.609 1119.079, 1446.807 1121, 1451.500 1121 C 1463.496 1121, 1467.409 1104.744, 1456.643 1099.635 C 1452.358 1097.601, 1450.387 1097.608, 1446.198 1099.673 M 1769.500 1109.227 C 1752.645 1115.235, 1747.404 1135.699, 1759.343 1148.882 C 1762.819 1152.721, 1770.813 1155.979, 1776.783 1155.990 C 1794.456 1156.023, 1805.839 1136.499, 1797.298 1120.805 C 1794.035 1114.812, 1789.804 1111.347, 1783.386 1109.416 C 1777.938 1107.776, 1773.731 1107.719, 1769.500 1109.227 M 1653.168 1114.146 C 1650.632 1115.401, 1647.730 1117.962, 1646.168 1120.322 C 1643.895 1123.757, 1643.500 1125.424, 1643.500 1131.584 C 1643.500 1138.155, 1643.778 1139.158, 1646.553 1142.587 C 1652.668 1150.142, 1662.347 1152.415, 1670.558 1148.225 C 1675.371 1145.768, 1677.454 1143.550, 1679.462 1138.746 C 1686.432 1122.063, 1669.389 1106.117, 1653.168 1114.146 M 658.147 1116.038 C 644.725 1118.791, 635.573 1130.368, 635.649 1144.500 C 635.693 1152.598, 637.999 1158.171, 643.856 1164.335 C 649.308 1170.072, 654.285 1172.259, 663.087 1172.785 C 669.166 1173.148, 671.561 1172.846, 675.138 1171.263 C 681.030 1168.657, 686.449 1163.793, 689.788 1158.113 C 692.195 1154.019, 692.500 1152.487, 692.500 1144.500 C 692.500 1136.544, 692.191 1134.978, 689.835 1131 C 682.927 1119.335, 670.555 1113.493, 658.147 1116.038 M 1087.388 1116.980 C 1084.021 1118.341, 1081 1122.930, 1081 1126.685 C 1081 1139.644, 1097.661 1143.801, 1102.376 1132.018 C 1104.384 1127, 1104.398 1125.670, 1102.483 1121.967 C 1099.902 1116.975, 1093.024 1114.703, 1087.388 1116.980 M 1556.071 1121.695 C 1551.074 1124.326, 1548.733 1128.086, 1548.280 1134.209 C 1547.983 1138.226, 1548.360 1140.250, 1549.847 1142.613 C 1551.917 1145.905, 1559.124 1150, 1562.848 1150 C 1569.155 1150, 1576.377 1143.837, 1577.580 1137.427 C 1578.476 1132.647, 1575.690 1125.627, 1571.794 1122.854 C 1567.643 1119.898, 1560.486 1119.370, 1556.071 1121.695 M 1888.324 1132.638 C 1882.439 1134.723, 1875.141 1141.503, 1872.366 1147.462 C 1867.531 1157.844, 1869.777 1171.004, 1877.805 1179.335 C 1884.110 1185.878, 1888.192 1187.486, 1898.500 1187.486 C 1908.823 1187.486, 1912.950 1185.856, 1919.140 1179.335 C 1930.898 1166.947, 1929.885 1148.761, 1916.812 1137.571 C 1909.492 1131.305, 1897.799 1129.280, 1888.324 1132.638 M 1478.307 1138.455 C 1476.310 1139.331, 1474.332 1141.390, 1473.025 1143.951 C 1468.914 1152.008, 1473.838 1160, 1482.912 1160 C 1488.479 1160, 1491.685 1157.998, 1493.650 1153.296 C 1497.513 1144.049, 1487.542 1134.404, 1478.307 1138.455 M 976.241 1152.995 C 966.874 1158.706, 966.558 1173.656, 975.706 1178.331 C 983.167 1182.145, 991.396 1180.465, 995.842 1174.222 C 998.732 1170.163, 998.799 1162.030, 995.981 1157.469 C 992.290 1151.497, 982.381 1149.251, 976.241 1152.995 M 1060.500 1159.403 C 1054.042 1162.253, 1051.389 1168.983, 1054.415 1174.836 C 1060.086 1185.802, 1076 1181.913, 1076 1169.561 C 1076 1164.716, 1073.722 1161.506, 1068.920 1159.585 C 1064.234 1157.710, 1064.330 1157.712, 1060.500 1159.403 M 867.500 1162.207 C 850.939 1167.995, 849.452 1190.068, 865.086 1198.044 C 872.878 1202.019, 883.866 1199.242, 888.491 1192.129 C 894.400 1183.041, 893.763 1174.500, 886.645 1167.382 C 880.936 1161.673, 874.221 1159.857, 867.500 1162.207 M 1580.415 1183.421 C 1571.528 1187.291, 1568.743 1199.813, 1575.226 1206.755 C 1580.250 1212.135, 1586.700 1213.404, 1592.980 1210.248 C 1603.662 1204.882, 1603.696 1189.624, 1593.038 1184.250 C 1587.971 1181.695, 1584.851 1181.490, 1580.415 1183.421 M 1497.975 1186.027 C 1494.366 1189.891, 1493.492 1193.859, 1495.305 1198.146 C 1497.463 1203.248, 1500.555 1205.500, 1505.399 1205.500 C 1510.678 1205.500, 1514.726 1202.901, 1516.661 1198.269 C 1518.005 1195.051, 1517.988 1194.257, 1516.487 1190.326 C 1514.533 1185.211, 1511.051 1183, 1504.951 1183 C 1501.623 1183, 1500.243 1183.599, 1497.975 1186.027 M 1678.519 1197.598 C 1662.854 1203.332, 1661.497 1224.552, 1676.308 1232.176 C 1684.729 1236.511, 1694.187 1234.321, 1700.447 1226.587 C 1703.229 1223.149, 1703.500 1222.165, 1703.500 1215.500 C 1703.500 1208.847, 1703.224 1207.838, 1700.442 1204.343 C 1696.871 1199.856, 1689.870 1195.970, 1685.538 1196.070 C 1683.867 1196.109, 1680.709 1196.797, 1678.519 1197.598 M 755.336 1198.024 C 741.816 1200.760, 732.880 1215.547, 737.159 1228.101 C 739.277 1234.317, 743.877 1239.904, 749.023 1242.512 C 755.352 1245.719, 765.188 1245.965, 770.885 1243.059 C 775.346 1240.783, 780.679 1235.012, 782.625 1230.355 C 784.584 1225.667, 784.342 1216.964, 782.109 1211.754 C 777.974 1202.107, 765.859 1195.894, 755.336 1198.024 M 1041.055 1207.267 C 1032.222 1211.737, 1034.167 1225.352, 1044.017 1228.005 C 1051.666 1230.064, 1058 1224.830, 1058 1216.450 C 1058 1211.177, 1052.711 1205.994, 1047.350 1206.015 C 1045.233 1206.023, 1042.400 1206.586, 1041.055 1207.267 M 1786.500 1208.866 C 1777.505 1212.962, 1771.003 1224.864, 1772.458 1234.569 C 1773.356 1240.557, 1778.491 1247.821, 1784.394 1251.454 C 1788.419 1253.931, 1790.372 1254.469, 1795.394 1254.483 C 1803.797 1254.506, 1806.408 1253.587, 1811.643 1248.761 C 1818.975 1242.003, 1819.999 1239.112, 1818.832 1228.470 C 1817.671 1217.874, 1815.684 1214.580, 1807.687 1209.994 C 1801.396 1206.386, 1792.935 1205.935, 1786.500 1208.866 M 959.500 1216.898 C 952.382 1221.055, 949.778 1230.844, 953.965 1237.710 C 957.494 1243.498, 966.901 1246.660, 972.316 1243.878 C 976.434 1241.762, 980.033 1237.593, 981.072 1233.733 C 984.347 1221.569, 970.289 1210.598, 959.500 1216.898 M 1512.763 1233.565 C 1509.431 1235.373, 1507 1239.803, 1507 1244.068 C 1507 1246.414, 1508.007 1248.242, 1510.882 1251.118 C 1513.758 1253.993, 1515.586 1255, 1517.932 1255 C 1524.941 1255, 1530 1249.942, 1530 1242.935 C 1530 1239.566, 1529.370 1238.170, 1526.600 1235.400 C 1523.885 1232.685, 1522.424 1232.008, 1519.350 1232.040 C 1517.233 1232.062, 1514.268 1232.748, 1512.763 1233.565 M 1592.791 1242.978 C 1582.467 1246.129, 1577.888 1258.502, 1584.115 1266.419 C 1587.119 1270.238, 1591.209 1272, 1597.068 1272 C 1601.737 1272, 1602.610 1271.626, 1606.118 1268.118 C 1609.775 1264.461, 1610 1263.883, 1610 1258.165 C 1610 1250.819, 1608.889 1248.131, 1604.695 1245.328 C 1600.817 1242.736, 1596.425 1241.869, 1592.791 1242.978 M 637.677 1249.426 C 631.734 1252.337, 628.561 1255.189, 624.859 1260.946 C 622.208 1265.068, 622 1266.109, 622 1275.236 C 622 1286.771, 623.361 1290.313, 630.224 1296.639 C 636.580 1302.498, 642.193 1304.365, 651.733 1303.794 C 658.207 1303.407, 660.336 1302.812, 664.521 1300.220 C 680.416 1290.375, 683.120 1269.140, 670.201 1255.630 C 661.953 1247.006, 648.035 1244.351, 637.677 1249.426 M 856.994 1247.934 C 852.358 1249.344, 848.256 1251.907, 845.619 1255.041 C 843.249 1257.857, 843 1258.951, 843 1266.542 C 843 1274.575, 843.137 1275.087, 846.241 1278.622 C 854.334 1287.839, 866.606 1288.360, 874.630 1279.828 C 879.041 1275.138, 880 1272.852, 880 1267.026 C 880 1258.198, 874.721 1251.024, 866.101 1248.138 C 862.295 1246.864, 860.635 1246.827, 856.994 1247.934 M 1900.275 1253.654 C 1894.137 1255.827, 1886.704 1262.937, 1884 1269.221 C 1877.798 1283.633, 1883.648 1299.767, 1897.541 1306.564 C 1902.349 1308.916, 1903.857 1309.165, 1911.222 1308.823 C 1920.581 1308.389, 1925.423 1306.510, 1930.647 1301.287 C 1936.586 1295.348, 1938 1291.299, 1938 1280.236 C 1938 1271.125, 1937.787 1270.056, 1935.143 1265.886 C 1927.625 1254.031, 1913.351 1249.024, 1900.275 1253.654 M 1031.590 1258.250 C 1029.473 1260.139, 1029.024 1261.517, 1028.794 1266.845 C 1028.540 1272.714, 1028.730 1273.371, 1031.316 1275.595 C 1036.354 1279.929, 1046.221 1278.199, 1048.805 1272.528 C 1051.545 1266.514, 1049.594 1259.816, 1044.316 1257.117 C 1040.571 1255.202, 1034.389 1255.752, 1031.590 1258.250 M 1682.459 1277.880 C 1663.707 1286.398, 1669.865 1314.399, 1690.450 1314.214 C 1696.768 1314.157, 1700.575 1312.387, 1704.852 1307.516 C 1707.725 1304.244, 1708.010 1303.300, 1708.118 1296.715 C 1708.274 1287.229, 1708.237 1287.049, 1705.277 1283.141 C 1700.287 1276.554, 1690.397 1274.274, 1682.459 1277.880 M 1515.893 1279.443 C 1512.167 1281.545, 1509.751 1285.719, 1509.632 1290.257 C 1509.545 1293.572, 1510.106 1294.709, 1513.250 1297.590 C 1517.627 1301.601, 1522.637 1302.129, 1527.602 1299.101 C 1530.409 1297.390, 1530.760 1296.606, 1531.297 1290.855 C 1531.857 1284.865, 1531.731 1284.338, 1529.102 1281.676 C 1525.734 1278.266, 1519.767 1277.257, 1515.893 1279.443 M 958.500 1282.503 C 951.931 1284.827, 950 1287.909, 950 1296.070 C 950 1302.564, 950.223 1303.273, 953.335 1306.669 C 956.253 1309.853, 957.380 1310.367, 962.342 1310.778 C 967.137 1311.176, 968.550 1310.882, 971.488 1308.874 C 975.685 1306.006, 979.473 1298.062, 978.518 1294.132 C 977.393 1289.502, 973.124 1284.079, 969.371 1282.510 C 964.992 1280.681, 963.653 1280.680, 958.500 1282.503 M 752.720 1307.560 C 746.576 1309.164, 741.729 1312.900, 738.381 1318.613 C 735.874 1322.891, 735.755 1323.657, 736.370 1331.651 C 737.061 1340.638, 738.342 1344.174, 742.155 1347.618 C 746.407 1351.457, 749.711 1353.074, 755.140 1353.973 C 765.655 1355.713, 776.135 1350.200, 780.619 1340.571 C 783.799 1333.742, 783.728 1327.416, 780.394 1320.368 C 775.354 1309.715, 764.215 1304.559, 752.720 1307.560 M 1035.301 1307.958 C 1033.030 1309.343, 1031.775 1311.122, 1030.976 1314.089 C 1028.788 1322.215, 1032.591 1327.966, 1040.666 1328.742 C 1045.162 1329.174, 1046.065 1328.914, 1048.919 1326.364 C 1059.495 1316.913, 1047.407 1300.576, 1035.301 1307.958 M 1586.241 1310.995 C 1577.202 1316.506, 1576.627 1330.054, 1585.167 1336.312 C 1588.687 1338.892, 1598.361 1338.827, 1602 1336.201 C 1605.999 1333.314, 1609.257 1325.885, 1608.438 1321.519 C 1606.560 1311.508, 1594.656 1305.864, 1586.241 1310.995 M 1790 1316.652 C 1778.491 1320.444, 1772.029 1328.866, 1772.010 1340.101 C 1771.985 1354.051, 1784.410 1365.296, 1798.062 1363.679 C 1811.089 1362.136, 1819.392 1352.554, 1819.112 1339.385 C 1818.901 1329.475, 1814.457 1322.618, 1805.500 1318.383 C 1800.801 1316.162, 1793.846 1315.385, 1790 1316.652 M 1509.500 1329.167 C 1503.203 1332.649, 1500.689 1338.420, 1503.018 1344.043 C 1506.957 1353.554, 1520.509 1353.206, 1524.569 1343.490 C 1528.256 1334.665, 1517.700 1324.632, 1509.500 1329.167 M 861.563 1334.725 C 854.021 1336.646, 847.747 1345.076, 847.675 1353.386 C 847.525 1370.559, 868.007 1379.228, 880.118 1367.118 C 886.875 1360.360, 887.471 1348.278, 881.402 1341.066 C 876.831 1335.634, 868.478 1332.964, 861.563 1334.725 M 966.859 1349.158 C 961.564 1352.228, 958.617 1357.963, 959.457 1363.565 C 960.574 1371.012, 967.414 1377.027, 974.718 1376.984 C 978.948 1376.959, 985.274 1372.920, 987.248 1368.985 C 993.986 1355.556, 979.730 1341.694, 966.859 1349.158 M 1048.881 1356.447 C 1046.049 1358.047, 1043 1363.493, 1043 1366.951 C 1043 1372.957, 1048.728 1378, 1055.550 1378 C 1058.368 1378, 1059.975 1377.225, 1062.600 1374.600 C 1065.478 1371.722, 1066 1370.496, 1066 1366.616 C 1066 1360.206, 1062.216 1355.970, 1055.968 1355.385 C 1053.160 1355.123, 1050.527 1355.517, 1048.881 1356.447 M 1672.667 1363.173 C 1670.559 1363.759, 1667.118 1365.872, 1665.021 1367.869 C 1652.619 1379.678, 1661.542 1400.333, 1679.045 1400.333 C 1694.339 1400.333, 1703.130 1383.267, 1694.341 1370.637 C 1689.616 1363.847, 1680.967 1360.868, 1672.667 1363.173 M 1571.379 1374.437 C 1569.663 1375.184, 1566.963 1377.494, 1565.379 1379.571 C 1563.099 1382.562, 1562.515 1384.337, 1562.572 1388.105 C 1562.716 1397.670, 1569.906 1403.947, 1579.280 1402.689 C 1593.443 1400.790, 1596.673 1381.983, 1583.987 1375.275 C 1579.105 1372.693, 1575.878 1372.479, 1571.379 1374.437 M 1488.077 1379.077 C 1485.477 1381.677, 1485 1382.915, 1485 1387.061 C 1485 1391.002, 1485.542 1392.575, 1487.750 1395.046 C 1493.121 1401.057, 1502.634 1399.476, 1506.540 1391.923 C 1508.730 1387.688, 1507.743 1382.897, 1503.885 1379.039 C 1501.336 1376.490, 1500.065 1376, 1496 1376 C 1491.922 1376, 1490.666 1376.488, 1488.077 1379.077 M 654.500 1379.339 C 641.658 1383.593, 634.049 1393.267, 633.671 1405.823 C 633.391 1415.121, 635.569 1420.687, 642.021 1427.161 C 648.133 1433.295, 654.421 1436, 662.567 1436 C 678.151 1436, 691 1422.860, 691 1406.923 C 691 1396.351, 683.779 1385.044, 674.343 1380.840 C 668.796 1378.370, 659.541 1377.669, 654.500 1379.339 M 1888.324 1384.379 C 1875.298 1388.640, 1867.847 1398.729, 1867.831 1412.125 C 1867.812 1428.419, 1880.068 1440.513, 1896.500 1440.415 C 1907.673 1440.349, 1916.128 1435.576, 1921.594 1426.249 C 1925.686 1419.266, 1926.200 1408.292, 1922.782 1400.857 C 1921.428 1397.911, 1919.102 1394.060, 1917.614 1392.301 C 1911.605 1385.196, 1897.495 1381.380, 1888.324 1384.379 M 1070.400 1403.400 C 1067.441 1406.359, 1067 1407.448, 1067 1411.796 C 1067 1416.264, 1067.374 1417.121, 1070.535 1419.896 C 1078.290 1426.706, 1089 1421.227, 1089 1410.450 C 1089 1405.010, 1083.727 1400, 1078 1400 C 1074.557 1400, 1073.187 1400.613, 1070.400 1403.400 M 992.445 1409.959 C 989.203 1411.272, 984.159 1417.636, 983.476 1421.275 C 982.661 1425.620, 985.323 1432.253, 989.187 1435.504 C 991.559 1437.500, 993.250 1438, 997.626 1438 C 1007.350 1438, 1012.993 1432.859, 1012.993 1424 C 1012.993 1413.416, 1002.170 1406.020, 992.445 1409.959 M 770.238 1416.111 C 760.918 1420.725, 754.889 1431.648, 756.410 1441.162 C 758.389 1453.540, 769.963 1462.963, 781.732 1461.778 C 797.413 1460.199, 807.272 1445.759, 803.025 1430.589 C 799.349 1417.459, 782.524 1410.030, 770.238 1416.111 M 883.007 1419.593 C 872.847 1423.999, 868.433 1434.878, 872.902 1444.500 C 876.601 1452.465, 882.169 1456, 891.018 1456 C 897.064 1456, 900.613 1454.344, 904.809 1449.564 C 917.984 1434.559, 901.320 1411.652, 883.007 1419.593 M 1464.415 1419.421 C 1462.719 1420.160, 1460.356 1422.003, 1459.165 1423.517 C 1452.947 1431.422, 1461.971 1444.145, 1471.553 1440.982 C 1481.712 1437.630, 1482.878 1424.017, 1473.393 1419.516 C 1469.545 1417.690, 1468.418 1417.678, 1464.415 1419.421 M 1765 1423.697 C 1760.404 1425.349, 1754.127 1430.429, 1751.988 1434.228 C 1742.584 1450.933, 1754.018 1470.600, 1772.871 1470.146 C 1789.301 1469.751, 1799.537 1455.275, 1794.983 1438.877 C 1793.458 1433.389, 1786.846 1426.476, 1781.319 1424.593 C 1776.814 1423.058, 1768.108 1422.580, 1765 1423.697 M 1540.241 1434.995 C 1529.932 1441.280, 1530.946 1456.960, 1541.945 1461.361 C 1547.361 1463.528, 1549.708 1463.410, 1554.500 1460.729 C 1559.554 1457.902, 1563.353 1451.053, 1562.600 1446.124 C 1561.007 1435.687, 1548.949 1429.685, 1540.241 1434.995 M 1104.321 1440.560 C 1101.192 1442.156, 1098 1447.175, 1098 1450.500 C 1098 1453.694, 1101.267 1459.087, 1104.085 1460.544 C 1110.771 1464.001, 1118.604 1460.760, 1120.982 1453.553 C 1122.269 1449.656, 1120.728 1444.793, 1117.216 1441.665 C 1114.336 1439.101, 1108.211 1438.576, 1104.321 1440.560 M 1642 1445.537 C 1631.045 1450.448, 1626.805 1463.614, 1632.940 1473.671 C 1635.856 1478.450, 1643.068 1482.263, 1649.366 1482.354 C 1663.321 1482.556, 1672.299 1467.512, 1665.995 1454.490 C 1661.810 1445.844, 1650.624 1441.670, 1642 1445.537 M 1428.315 1455.464 C 1420.454 1458.882, 1419.896 1472.354, 1427.472 1475.805 C 1434.345 1478.937, 1441.815 1476.121, 1443.972 1469.585 C 1445.985 1463.486, 1443.377 1457.942, 1437.282 1455.362 C 1433.342 1453.694, 1432.357 1453.705, 1428.315 1455.464 M 1028.424 1466.019 C 1014.470 1472.926, 1019.474 1494, 1035.067 1494 C 1042.401 1494, 1048.836 1487.743, 1049.710 1479.761 C 1050.259 1474.750, 1047.548 1469.960, 1042.078 1466.274 C 1037.912 1463.466, 1033.739 1463.388, 1028.424 1466.019 M 1141.400 1474.400 C 1138.536 1477.264, 1138 1478.512, 1138 1482.323 C 1138 1493.434, 1151.159 1497.970, 1158.034 1489.230 C 1160.787 1485.730, 1160.746 1477.746, 1157.960 1474.960 C 1152.899 1469.899, 1146.130 1469.670, 1141.400 1474.400 M 1385.838 1484.526 C 1384.244 1485.392, 1382.508 1487.720, 1381.511 1490.333 C 1380.010 1494.261, 1379.994 1495.049, 1381.344 1498.280 C 1383.047 1502.356, 1387.555 1505.157, 1392.646 1505.301 C 1402.628 1505.584, 1407.303 1491.316, 1399.293 1485.016 C 1396.247 1482.620, 1389.780 1482.385, 1385.838 1484.526 M 1501 1486.121 C 1496.945 1487.733, 1493.045 1492.120, 1491.905 1496.352 C 1489.799 1504.174, 1495.713 1512.944, 1504.148 1514.508 C 1509.133 1515.432, 1516.262 1512.227, 1519.028 1507.818 C 1521.966 1503.136, 1521.401 1494.127, 1517.937 1490.419 C 1513.168 1485.314, 1506.979 1483.743, 1501 1486.121 M 1188.111 1496.560 C 1182.459 1501.316, 1183.128 1511.278, 1189.353 1515.074 C 1197.559 1520.077, 1207 1514.393, 1207 1504.450 C 1207 1501.632, 1206.225 1500.025, 1203.600 1497.400 C 1199.144 1492.944, 1192.817 1492.601, 1188.111 1496.560 M 923.342 1496.452 C 919.352 1498.188, 914.169 1503.560, 913.238 1506.924 C 912.846 1508.341, 912.519 1512.008, 912.512 1515.073 C 912.472 1533.315, 937.142 1539.742, 947.185 1524.106 C 949.850 1519.958, 950.109 1518.834, 949.792 1512.806 C 949.495 1507.141, 948.974 1505.528, 946.399 1502.306 C 944.727 1500.213, 941.815 1497.713, 939.929 1496.752 C 935.837 1494.665, 927.784 1494.520, 923.342 1496.452 M 1339.110 1502.396 C 1335.824 1504.217, 1334.077 1507.734, 1334.035 1512.615 C 1333.946 1522.966, 1346.797 1527.783, 1353.440 1519.889 C 1357.603 1514.942, 1356.756 1506.922, 1351.633 1502.772 C 1349.089 1500.711, 1342.506 1500.513, 1339.110 1502.396 M 694.803 1505.351 C 672.805 1511.499, 666.014 1538.697, 682.649 1554.031 C 688.848 1559.745, 693.075 1561.356, 702 1561.407 C 707.912 1561.441, 710.529 1560.949, 714.358 1559.083 C 731.823 1550.576, 736.343 1528.495, 723.535 1514.250 C 716.257 1506.156, 704.715 1502.581, 694.803 1505.351 M 1238.198 1507.673 C 1232.386 1510.537, 1230.111 1518.795, 1233.692 1524.027 C 1236.190 1527.678, 1236.920 1527.968, 1243.661 1527.985 C 1249.322 1527.999, 1250.032 1527.750, 1252.411 1524.923 C 1257.674 1518.669, 1254.421 1509.322, 1246.186 1507.035 C 1241.626 1505.768, 1242.147 1505.727, 1238.198 1507.673 M 1286.426 1512.250 C 1283.437 1514.990, 1282.871 1516.184, 1282.821 1519.852 C 1282.727 1526.743, 1285.300 1529.342, 1293.079 1530.214 C 1298.778 1530.853, 1299.689 1530.701, 1301.741 1528.774 C 1309.646 1521.347, 1304.523 1509, 1293.535 1509 C 1290.908 1509, 1289.039 1509.854, 1286.426 1512.250 M 1845.324 1510.578 C 1839.471 1512.736, 1832.631 1519.093, 1829.584 1525.207 C 1822.825 1538.771, 1829.097 1556.974, 1842.821 1563.621 C 1847.427 1565.853, 1858.756 1566.609, 1864.301 1565.055 C 1875.809 1561.830, 1884.260 1550.168, 1884.188 1537.614 C 1884.125 1526.705, 1879 1518.077, 1869.117 1512.242 C 1863.599 1508.984, 1851.872 1508.164, 1845.324 1510.578 M 1075.207 1512.669 C 1070.366 1515.055, 1066.600 1521.983, 1067.302 1527.214 C 1068.295 1534.621, 1073.881 1539.908, 1081.043 1540.219 C 1090.250 1540.620, 1096.079 1535.541, 1096.741 1526.540 C 1097.589 1514.998, 1085.838 1507.429, 1075.207 1512.669 M 820 1514.930 C 802.766 1517.538, 793.908 1536.002, 803.008 1550.351 C 809.952 1561.302, 823.246 1565.015, 834.622 1559.183 C 850.948 1550.813, 851.401 1526.447, 835.392 1517.844 C 829.528 1514.692, 825.995 1514.023, 820 1514.930 M 1595.500 1519.388 C 1591.115 1521.301, 1585.225 1528.282, 1584.433 1532.504 C 1582.098 1544.953, 1590.755 1556, 1602.848 1556 C 1619.391 1556, 1628.282 1538.413, 1618.332 1525.369 C 1613.457 1518.977, 1602.824 1516.191, 1595.500 1519.388 M 1717.195 1524.590 C 1704.446 1530.943, 1699.781 1545.710, 1706.725 1557.732 C 1713.263 1569.053, 1725.855 1573.074, 1737.617 1567.598 C 1749.907 1561.875, 1754.791 1546.143, 1747.970 1534.250 C 1741.641 1523.214, 1728.336 1519.038, 1717.195 1524.590 M 1452.968 1527.941 C 1446.226 1529.990, 1442 1535.719, 1442 1542.812 C 1442 1550.169, 1449.116 1556.995, 1456.790 1556.998 C 1464.359 1557.002, 1472 1549.723, 1472 1542.508 C 1472 1536.318, 1467.395 1530.247, 1461.101 1528.139 C 1457.295 1526.864, 1456.571 1526.846, 1452.968 1527.941 M 1128.774 1549.983 C 1116.898 1559.936, 1125.832 1579.074, 1140.877 1575.911 C 1152.514 1573.464, 1156.675 1560.072, 1148.552 1551.208 C 1145.538 1547.920, 1144.708 1547.579, 1138.878 1547.236 C 1132.938 1546.886, 1132.244 1547.075, 1128.774 1549.983 M 1391.071 1559.752 C 1385.595 1562.544, 1383.500 1566.215, 1383.500 1573.018 C 1383.500 1578.364, 1383.810 1579.209, 1386.972 1582.471 C 1393.729 1589.442, 1402.831 1589.373, 1409.038 1582.304 C 1414.030 1576.618, 1414.174 1570.883, 1409.499 1563.819 C 1405.776 1558.193, 1397.647 1556.399, 1391.071 1559.752 M 981.127 1562.498 C 972.734 1565.116, 968 1571.834, 968 1581.130 C 968 1591.052, 975.065 1598.391, 985.846 1599.668 C 990 1600.160, 991.564 1599.818, 995.870 1597.474 C 1010.721 1589.391, 1008.657 1567.242, 992.609 1562.476 C 986.758 1560.739, 986.766 1560.739, 981.127 1562.498 M 1194.102 1572.161 C 1184.414 1578.829, 1184.996 1592.896, 1195.174 1598.089 C 1201.818 1601.478, 1211.401 1598.993, 1214.454 1593.088 C 1220.170 1582.035, 1214.541 1571.188, 1202.592 1570.230 C 1198.463 1569.899, 1196.857 1570.264, 1194.102 1572.161 M 1324.347 1578.118 C 1316.331 1583.082, 1315.677 1597.158, 1323.217 1602.439 C 1326.438 1604.695, 1338.786 1604.553, 1341.564 1602.228 C 1349.501 1595.586, 1348.591 1583.380, 1339.759 1577.995 C 1335.572 1575.442, 1328.579 1575.498, 1324.347 1578.118 M 1259.071 1581.752 C 1254.439 1584.114, 1251.881 1587.878, 1251.279 1593.220 C 1250.686 1598.480, 1252.462 1602.528, 1257.062 1606.399 C 1259.983 1608.856, 1260.648 1608.992, 1266.848 1608.390 C 1274.025 1607.694, 1276.925 1605.933, 1279.706 1600.584 C 1282.818 1594.602, 1279.276 1584.766, 1272.800 1581.403 C 1269.121 1579.492, 1263.207 1579.642, 1259.071 1581.752 M 1534.500 1582.112 C 1521.265 1589.795, 1520.101 1607.254, 1532.261 1615.681 C 1535.537 1617.951, 1537.263 1618.399, 1542.920 1618.445 C 1548.768 1618.493, 1550.221 1618.118, 1553.799 1615.638 C 1564.315 1608.353, 1564.653 1592.176, 1554.452 1584.395 C 1551.254 1581.957, 1549.615 1581.480, 1543.593 1581.237 C 1539.488 1581.072, 1535.657 1581.440, 1534.500 1582.112 M 876.278 1605.549 C 857.447 1614.933, 859.095 1642.546, 878.910 1649.629 C 886.704 1652.415, 894.477 1650.852, 901.864 1645.013 C 912.949 1636.251, 913.656 1619.442, 903.342 1609.860 C 895.559 1602.630, 885.387 1601.009, 876.278 1605.549 M 1652.375 1612.406 C 1642.370 1617.064, 1636.471 1629.040, 1639.079 1639.398 C 1640.659 1645.675, 1644.928 1651.286, 1650.708 1654.683 C 1654.730 1657.048, 1656.624 1657.500, 1662.500 1657.500 C 1668.350 1657.500, 1670.275 1657.044, 1674.218 1654.727 C 1683.135 1649.485, 1688.071 1638.764, 1685.949 1629.250 C 1682.534 1613.941, 1666.430 1605.861, 1652.375 1612.406 M 1047.491 1616.865 C 1045.287 1617.867, 1042.046 1620.322, 1040.291 1622.322 C 1032.785 1630.870, 1035.570 1645.018, 1045.900 1650.824 C 1050.503 1653.411, 1059.594 1653.778, 1063.901 1651.551 C 1067.718 1649.577, 1072.846 1643.559, 1073.546 1640.232 C 1073.862 1638.729, 1074.273 1636.724, 1074.460 1635.776 C 1074.646 1634.828, 1074.369 1632.137, 1073.843 1629.796 C 1071.204 1618.050, 1058.551 1611.841, 1047.491 1616.865 M 757.385 1620.617 C 751.996 1622.528, 745.642 1628.048, 742.336 1633.690 C 738.830 1639.672, 737.925 1650.897, 740.422 1657.434 C 743.225 1664.774, 747.194 1669.291, 754.048 1672.945 C 759.552 1675.878, 761.351 1676.332, 767.453 1676.325 C 778.888 1676.312, 787.939 1670.812, 792.915 1660.854 C 796.957 1652.765, 797.229 1643.181, 793.634 1635.462 C 790.767 1629.304, 783.508 1622.702, 777.266 1620.575 C 771.602 1618.645, 762.894 1618.664, 757.385 1620.617 M 1779.860 1624.568 C 1777.191 1625.390, 1773.108 1627.896, 1770.246 1630.469 C 1753.803 1645.253, 1758.781 1671.113, 1779.581 1678.964 C 1792.960 1684.014, 1808.221 1677.908, 1815.246 1664.694 C 1817.045 1661.311, 1817.478 1658.856, 1817.488 1652 C 1817.499 1644.446, 1817.172 1642.907, 1814.551 1638.176 C 1807.758 1625.914, 1793.568 1620.347, 1779.860 1624.568 M 1464.500 1631.573 C 1456.980 1635.484, 1453.313 1642.550, 1454.333 1651.165 C 1455.482 1660.865, 1461.844 1666.791, 1472.184 1667.789 C 1478.464 1668.396, 1484.820 1665.310, 1488.638 1659.800 C 1491.137 1656.195, 1491.500 1654.761, 1491.500 1648.508 C 1491.500 1642.198, 1491.165 1640.906, 1488.692 1637.663 C 1487.148 1635.638, 1484.128 1633.086, 1481.982 1631.991 C 1477.229 1629.566, 1468.748 1629.363, 1464.500 1631.573 M 1127.401 1655.339 C 1118.871 1659.403, 1114.654 1668.235, 1117.012 1677.096 C 1121.394 1693.559, 1141.655 1697.128, 1151.457 1683.164 C 1154.059 1679.456, 1154.500 1677.924, 1154.500 1672.591 C 1154.500 1667.460, 1154.012 1665.616, 1151.749 1662.197 C 1148.636 1657.493, 1143.020 1654.212, 1136.753 1653.436 C 1133.534 1653.037, 1131.261 1653.500, 1127.401 1655.339 M 1385.655 1663.405 C 1380.680 1665.248, 1377.532 1668.269, 1374.883 1673.741 C 1369.565 1684.728, 1377.670 1698.896, 1390.260 1700.622 C 1397.023 1701.549, 1405.012 1697.542, 1408.598 1691.424 C 1412.187 1685.299, 1412.400 1677.001, 1409.105 1671.671 C 1404.227 1663.778, 1394.193 1660.241, 1385.655 1663.405 M 1212.506 1675.114 C 1210.151 1675.678, 1206.959 1677.587, 1204.726 1679.768 C 1196.751 1687.555, 1196.738 1699.634, 1204.696 1707.057 C 1208.260 1710.382, 1209.196 1710.723, 1216.441 1711.336 C 1225.511 1712.102, 1228.231 1711.045, 1233.287 1704.789 C 1240.056 1696.414, 1236.808 1681.533, 1227.131 1676.582 C 1223.329 1674.637, 1217.106 1674.013, 1212.506 1675.114 M 958.852 1678.330 C 947.595 1682.540, 941.667 1693.336, 943.919 1705.522 C 944.504 1708.686, 945.527 1712, 946.191 1712.887 C 951.840 1720.425, 957.216 1723.729, 965.257 1724.606 C 972.072 1725.349, 979.952 1722.037, 985.183 1716.230 C 995.243 1705.064, 991.494 1686.478, 977.749 1679.370 C 973.492 1677.169, 963.436 1676.615, 958.852 1678.330 M 1298.586 1677.995 C 1296.983 1678.501, 1293.932 1680.614, 1291.805 1682.690 C 1283.539 1690.762, 1283.622 1702.812, 1291.995 1710.376 C 1295.954 1713.953, 1296.118 1714, 1304.658 1714 C 1312.465 1714, 1313.649 1713.742, 1316.764 1711.366 C 1327.283 1703.343, 1325.694 1685.595, 1313.906 1679.460 C 1310.424 1677.648, 1302.183 1676.860, 1298.586 1677.995 M 1580.500 1682.922 C 1561.139 1685.206, 1552.480 1709.244, 1566.108 1722.873 C 1571.497 1728.262, 1577.222 1730.346, 1585.232 1729.836 C 1592.774 1729.356, 1598.737 1725.873, 1603.415 1719.217 C 1605.793 1715.834, 1606.491 1713.647, 1606.814 1708.578 C 1607.317 1700.676, 1605.809 1695.902, 1601.198 1690.797 C 1595.263 1684.228, 1589.150 1681.902, 1580.500 1682.922 M 850.267 1718.070 C 840.805 1719.903, 832.467 1726.456, 828.825 1734.922 C 826.439 1740.471, 826.264 1750.268, 828.435 1756.806 C 831.887 1767.197, 843.342 1774.973, 855.221 1774.990 C 880.313 1775.027, 893.302 1745.899, 876.520 1727.233 C 869.775 1719.731, 859.752 1716.233, 850.267 1718.070 M 1691.882 1722.319 C 1674.473 1728.835, 1667.033 1746.740, 1675.060 1762.804 C 1687.280 1787.259, 1722.882 1782.446, 1728.907 1755.525 C 1731.649 1743.271, 1725.241 1730.202, 1713.590 1724.288 C 1707.460 1721.176, 1697.379 1720.262, 1691.882 1722.319 M 1053.603 1733.693 C 1046.937 1735.743, 1039.866 1742.836, 1038.062 1749.279 C 1033.920 1764.074, 1043.393 1778.750, 1057.756 1779.789 C 1060.927 1780.018, 1065.360 1779.711, 1067.607 1779.106 C 1084.055 1774.677, 1090.009 1754.171, 1078.796 1740.569 C 1073.304 1733.905, 1062.498 1730.956, 1053.603 1733.693 M 1482.757 1737.083 C 1468.847 1740.363, 1461.010 1754.933, 1465.992 1768.250 C 1471.126 1781.972, 1486.955 1788.112, 1499.447 1781.227 C 1502.411 1779.593, 1505.781 1776.561, 1507.853 1773.663 C 1510.843 1769.481, 1511.374 1767.850, 1511.775 1761.607 C 1512.159 1755.616, 1511.876 1753.678, 1510.112 1750.220 C 1506.798 1743.723, 1501.829 1739.383, 1495.649 1737.586 C 1489.639 1735.839, 1488.262 1735.786, 1482.757 1737.083 M 1159.748 1768.367 C 1143.401 1774.461, 1137.974 1792.611, 1148.409 1806.291 C 1156.606 1817.038, 1175.378 1817.844, 1184.688 1807.849 C 1193.150 1798.763, 1192.908 1784.096, 1184.140 1774.658 C 1178.305 1768.378, 1167.320 1765.544, 1159.748 1768.367 M 1375.564 1770.076 C 1368.430 1771.834, 1362.034 1777.762, 1359.541 1784.928 C 1355.823 1795.611, 1359.397 1806.749, 1368.500 1812.852 L 1373.500 1816.204 1382.491 1815.508 C 1392.426 1814.739, 1394.008 1814.172, 1398.752 1809.681 C 1405.239 1803.541, 1407.431 1790.886, 1403.396 1782.870 C 1398.223 1772.591, 1386.753 1767.318, 1375.564 1770.076 M 1265.039 1781.174 C 1256.829 1783.529, 1248.994 1793.925, 1249.006 1802.446 C 1249.019 1811.933, 1252.913 1819.060, 1260.881 1824.176 C 1265.366 1827.056, 1265.747 1827.122, 1274 1826.464 C 1283.589 1825.698, 1286.556 1824.500, 1290.536 1819.786 C 1299.083 1809.660, 1299.137 1797.462, 1290.674 1788.244 C 1288.378 1785.744, 1284.700 1782.876, 1282.500 1781.871 C 1278.143 1779.881, 1270.595 1779.579, 1265.039 1781.174 M 951.324 1797.638 C 949.028 1798.451, 945.115 1800.907, 942.630 1803.095 C 928.215 1815.783, 930.113 1839.069, 946.383 1849.169 C 950.781 1851.898, 952.662 1852.408, 959.772 1852.799 C 967.525 1853.225, 968.453 1853.052, 974.577 1850.036 C 996.088 1839.447, 995.448 1808.797, 973.500 1798.390 C 967.612 1795.598, 958 1795.272, 951.324 1797.638 M 1586.027 1800.737 C 1579.601 1803.005, 1571.774 1811.154, 1569.528 1817.916 C 1567.272 1824.708, 1567.825 1834.805, 1570.765 1840.500 C 1577.873 1854.267, 1595.503 1860.347, 1608.784 1853.611 C 1620.390 1847.726, 1625.538 1838.754, 1624.814 1825.674 C 1624.359 1817.453, 1622.411 1812.760, 1617.251 1807.446 C 1609.619 1799.588, 1596.978 1796.872, 1586.027 1800.737 M 1077.672 1851.377 C 1058.594 1856.725, 1050.298 1879.342, 1061.487 1895.500 C 1067.197 1903.745, 1075.020 1907.877, 1085.072 1907.956 C 1110.715 1908.158, 1123.865 1877.268, 1105.872 1859.093 C 1098.870 1852.020, 1086.982 1848.767, 1077.672 1851.377 M 1463.200 1855.058 C 1456.711 1858.300, 1453.281 1861.688, 1449.707 1868.384 C 1446.618 1874.170, 1446.620 1887.666, 1449.711 1893.500 C 1454.155 1901.888, 1463.497 1908.284, 1473.258 1909.622 C 1482.666 1910.911, 1494.482 1905.040, 1500.005 1896.331 C 1507.539 1884.451, 1505.844 1870.098, 1495.724 1860.078 C 1487.214 1851.652, 1474.074 1849.624, 1463.200 1855.058 M 1203.500 1879.339 C 1194.455 1882.335, 1189.064 1886.879, 1184.918 1895 C 1181.732 1901.242, 1181.737 1911.456, 1184.931 1918.727 C 1187.462 1924.491, 1194.209 1931.354, 1199.528 1933.576 C 1201.551 1934.422, 1206.323 1935, 1211.272 1935 C 1224.544 1935, 1232.167 1930.231, 1237.645 1918.500 C 1243.937 1905.028, 1237.463 1888.190, 1223.262 1881.091 C 1217.883 1878.401, 1208.769 1877.594, 1203.500 1879.339 M 1333.324 1880.638 C 1327.519 1882.694, 1320.652 1889.052, 1317.584 1895.207 C 1312.358 1905.694, 1314.679 1919.525, 1323.071 1927.917 C 1328.744 1933.590, 1332.811 1935, 1343.500 1935 C 1354.490 1935, 1358.157 1933.638, 1364.140 1927.335 C 1370.297 1920.848, 1371.492 1917.626, 1371.496 1907.500 C 1371.500 1899.484, 1371.200 1897.990, 1368.757 1893.834 C 1361.457 1881.415, 1346.671 1875.908, 1333.324 1880.638" stroke="none" fill="#ffa404" fill-rule="evenodd"/><path d="" stroke="none" fill="#fca404" fill-rule="evenodd"/></svg>