<?xml version="1.0" encoding="UTF-8" standalone="no"?>
<svg
   width="2560"
   height="2560"
   viewBox="0 0 2560 2560"
   version="1.1"
   id="svg2"
   sodipodi:docname="favicon.svg"
   inkscape:version="1.3.2 (091e20ef0f, 2023-11-25)"
   xmlns:inkscape="http://www.inkscape.org/namespaces/inkscape"
   xmlns:sodipodi="http://sodipodi.sourceforge.net/DTD/sodipodi-0.dtd"
   xmlns="http://www.w3.org/2000/svg"
   xmlns:svg="http://www.w3.org/2000/svg">
  <defs
     id="defs2" />
  <sodipodi:namedview
     id="namedview2"
     pagecolor="#505050"
     bordercolor="#eeeeee"
     borderopacity="1"
     inkscape:showpageshadow="0"
     inkscape:pageopacity="0"
     inkscape:pagecheckerboard="0"
     inkscape:deskcolor="#505050"
     inkscape:zoom="0.1953125"
     inkscape:cx="1277.44"
     inkscape:cy="1280"
     inkscape:window-width="1366"
     inkscape:window-height="740"
     inkscape:window-x="0"
     inkscape:window-y="0"
     inkscape:window-maximized="1"
     inkscape:current-layer="svg2" />
  <path
     d="m 1141.4504,20.696052 c -17.9972,8.967702 -29.8602,28.759956 -29.8602,49.816492 0,50.617526 63.602,74.625336 96.9808,36.610076 10.0256,-11.419056 13.4324,-20.907912 13.4806,-37.552012 0.034,-12.102346 -0.832,-16.32755 -4.9452,-24.127482 C 1206.0194,24.419404 1191.3768,15.72 1167.0834,15.72 c -12.9498,0 -17.3718,0.858938 -25.633,4.976052 m 254.7476,2.856694 c -27.9938,13.988148 -38.9264,44.718838 -25.7122,72.27049 10.232,21.332554 27.65,32.574024 50.4186,32.537364 22.0468,-0.0348 40.013,-11.26658 50.4496,-31.53945 3.4416,-6.684278 4.4356,-11.729816 4.3778,-22.197284 -0.2432,-42.645804 -42.3216,-69.6666526 -79.5338,-51.07112 m -497.9816,43.95641 c -14.34139,5.124676 -23.50783,13.22765 -30.79637,27.221588 -12.02703,23.094826 -7.35982,50.185156 11.51176,66.796456 21.4426,18.87348 52.2698,18.81556 74.41683,-0.14284 18.2674,-15.6346 23.78581,-44.06257 12.77797,-65.81784 C 953.29658,70.207572 924.24702,58.205598 898.2164,67.509156 m 752.9126,9.309346 c -11.7782,4.17116 -26.1794,17.914172 -31.4874,30.047398 -5.8234,13.31065 -5.9894,31.67456 -0.4034,44.30384 8.0374,18.17282 27.2466,31.74598 47.7666,33.75338 19.1708,1.87616 42.3504,-10.40184 51.903,-27.4918 21.4156,-38.31831 -5.4276,-84.268614 -48.8688,-83.65288 -5.916,0.083 -14.4244,1.45151 -18.91,3.040062 M 672.65143,166.45884 c -26.10203,4.82936 -45.40982,27.63274 -45.45224,53.68268 -0.054,32.07604 23.72402,56.14948 55.4044,56.0935 15.8836,-0.027 25.6562,-3.81986 37.55978,-14.573 13.09627,-11.8321 16.45485,-20.06634 16.47224,-40.37588 0.0132,-15.40298 -0.5752,-18.3755 -5.18839,-26.21982 -12.69879,-21.60278 -35.83023,-32.85776 -58.79579,-28.60748 m 1214.98077,15.92222 c -25.164,7.07032 -40.4936,27.34126 -40.4936,53.54564 0,23.11412 11.9344,41.30818 33.4214,50.95144 10.2242,4.58808 13.6812,5.20768 24.6312,4.42016 31.3002,-2.2564 52.3394,-24.9343 52.2892,-56.3618 -0.057,-35.40176 -35.6296,-62.16784 -69.8482,-52.55544 m -610.4156,54.33122 c -9.9674,3.55156 -16.119,8.24582 -23.6372,18.0435 -7.5278,9.80734 -9.5062,21.01986 -6.3716,36.1198 1.963,9.45218 3.8508,12.70456 12.249,21.0855 7.0956,7.08382 12.5542,10.64118 19.14,12.47872 20.3308,5.669 41.505,-2.4417 52.3006,-20.03352 22.1586,-36.10822 -14.077,-81.80182 -53.6808,-67.694 m -204.5006,17.84468 c -19.3714,1.9939 -35.9538,22.99254 -35.9018,45.45812 0.024,9.81892 7.082,25.49984 14.6966,32.63772 17.395,16.30824 46.4986,15.46474 64.899,-1.88388 6.5762,-6.1998 13.0406,-22.9848 13.0154,-33.79584 -0.025,-10.89404 -7.5162,-26.3723 -16.2464,-33.56808 -11.118,-9.16458 -19.5318,-11.00406 -40.4628,-8.84804 m 414.0796,7.01048 c -16.0438,5.80604 -31.1476,26.53638 -31.1476,42.75198 0,13.32222 5.1556,24.89956 15.32,34.40964 34.9076,32.64932 88.187,-1.05582 75.2604,-47.61028 -4.5418,-16.35264 -26.5614,-32.28836 -44.2556,-32.02778 -4.7772,0.0696 -11.6062,1.18514 -15.1772,2.47644 M 461.59584,314.65948 c -25.47862,8.39058 -42.46436,30.21148 -42.46436,54.559 0,40.32956 43.18819,67.0937 79.55699,49.2992 20.32113,-9.94246 31.36771,-27.7968 31.31356,-50.6098 -0.0514,-21.38274 -10.84382,-38.45342 -30.73064,-48.61206 -10.24549,-5.2347 -28.89121,-7.52776 -37.67555,-4.63634 m 407.08275,1.13496 c -41.91238,11.41712 -46.07381,70.49086 -6.14578,87.22374 7.6262,3.19448 23.60057,3.36628 33.63179,0.36096 29.77521,-8.92138 40.48202,-48.57538 19.67839,-72.88238 -11.45196,-13.3782 -30.3736,-19.27688 -47.1644,-14.70232 m 813.71561,16.35264 c -16.1672,7.20158 -26.8798,24.27998 -26.8104,42.7404 0.082,21.22446 12.3108,37.44778 32.6994,43.37542 35.566,10.33814 67.4548,-21.97146 57.2478,-58.00248 -6.9854,-24.65634 -38.9474,-38.8877 -63.1368,-28.11334 m 398.9026,8.01806 c -34.093,17.03786 -41.1094,61.2838 -14.0152,88.37798 8.4814,8.4813 17.1016,12.83004 31.6592,15.96662 20.1744,4.34872 46.8458,-9.79962 57.3866,-30.44116 6.3292,-12.39382 6.8156,-36.11982 0.9826,-48.01756 -13.9496,-28.45884 -47.7956,-39.98598 -76.0132,-25.88588 m -1405.60338,81.8211 c -27.08642,14.11362 -32.99283,50.70052 -11.79541,73.0831 13.85117,14.62512 38.16001,18.21916 55.29637,8.17632 23.71243,-13.89548 30.89861,-43.86376 15.87003,-66.17684 -12.61763,-18.73258 -39.33741,-25.51916 -59.37099,-15.08258 m 1200.73798,16.56304 c -17.1074,2.38766 -27.8008,9.61046 -35.0274,23.66038 -8.3752,16.28508 -6.5164,34.91728 4.9838,49.97862 8.3462,10.93072 17.9276,15.60952 33.904,16.55532 10.9094,0.6466 13.9302,0.0174 23.1624,-4.81586 45.0276,-23.58122 23.2472,-92.39088 -27.0228,-85.37846 m -672.7572,15.06134 c -12.0522,7.3502 -20.2188,21.55066 -20.13,35.008 0.042,6.60128 6.1746,19.36376 11.7818,24.51738 20.5122,18.85804 54.449,9.43482 61.5946,-17.10156 4.507,-16.74446 -3.592,-35.69708 -18.0648,-42.2694 -10.6624,-4.83902 -27.3778,-4.9143 -35.1816,-0.15442 m 168.1936,6.443 c -12.17,7.1649 -19.0222,17.16912 -20.0238,29.229 -2.9688,35.81868 39.318,55.08978 63.517,28.94332 7.5972,-8.20914 9.4078,-12.87636 9.373,-24.17188 -0.038,-12.22974 -5.3042,-22.63736 -15.679,-30.99126 -9.9444,-8.00646 -26.4322,-9.34216 -37.1872,-3.00918 m -331.199,20.05862 c -14.5478,6.30788 -21.869,17.55708 -21.869,33.59896 0,11.77808 3.2832,19.56064 11.5502,27.3818 7.2382,6.85028 14.1908,9.29198 26.4514,9.29198 25.5732,0 43.8368,-29.25216 32.2866,-51.71002 -9.7978,-19.04526 -29.7058,-26.67728 -48.4192,-18.56272 m 495.0824,21.25534 c -14.71,8.03156 -20.9174,18.11684 -20.7746,33.75724 0.1988,21.8267 15.3392,36.49234 37.6736,36.49234 35.1046,0 49.5366,-47.7647 20.2806,-67.12458 -9.7514,-6.45458 -28.235,-8.00646 -37.1796,-3.125 m -1249.46949,1.58084 c -19.15529,6.2442 -32.85777,21.08548 -37.99982,41.16148 -6.34456,24.76638 6.14769,50.91092 30.29639,63.39738 9.46377,4.89498 29.86596,5.81568 41.70194,1.8858 21.56418,-7.16298 37.0849,-28.48974 37.0849,-50.95918 0,-16.10944 -2.7428,-24.84164 -11.4036,-36.30124 -13.1022,-17.33512 -39.40886,-25.7913 -59.67981,-19.18424 m 1969.09389,25.50564 c -11.3592,4.02446 -25.4458,17.11122 -30.802,28.61326 -9.4658,20.32692 -4.8276,47.286 10.8284,62.94378 16.0726,16.07082 37.9958,21.0353 58.6992,13.28748 20.3656,-7.6185 33.8884,-26.05768 35.4924,-48.39394 1.3106,-18.27898 -3.2272,-30.71332 -15.8006,-43.28662 -15.3856,-15.38562 -37.8588,-20.45046 -58.4174,-13.16396 M 886.5194,540.8691 c -25.55976,10.23778 -31.78841,44.13978 -11.56578,62.94956 12.27799,11.42098 37.19299,10.97318 50.57502,-0.90912 9.14153,-8.11842 13.50178,-28.00332 8.84234,-40.33536 -6.50861,-17.22896 -31.13601,-28.399 -47.85158,-21.70508 m -355.87077,15.1482 c -11.365,1.60786 -23.67575,10.02352 -31.32705,21.41748 -7.30774,10.88052 -9.02368,28.3469 -4.02061,40.95688 11.70087,29.50502 51.24102,38.22758 74.07326,16.34106 18.89859,-18.11492 20.17836,-46.02752 2.92237,-63.74288 -12.49617,-12.83002 -25.00762,-17.32738 -41.64797,-14.97254 m 1163.37897,17.39302 c -8.5932,2.07302 -13.2876,5.02816 -19.8366,12.48838 -7.7768,8.85768 -11.533,24.69496 -8.2286,34.70304 9.1454,27.70992 45.6802,35.08136 64.2854,12.969 9.3034,-11.0581 10.9674,-27.44164 4.1538,-40.91828 -3.7736,-7.46408 -15.1598,-16.69236 -23.4326,-18.98928 -8.0722,-2.24096 -8.6666,-2.25062 -16.9414,-0.25286 m 325.2384,11.08512 c -11.6448,5.02238 -19.5528,12.3745 -24.3166,22.60456 -13.2006,28.35268 4.1016,61.74512 34.1336,65.87574 35.1296,4.83128 62.3744,-28.32372 50.1426,-61.01936 -7.2864,-19.47184 -22.9712,-30.70174 -42.5878,-30.48748 -5.8388,0.0618 -13.6562,1.42448 -17.3718,3.02654 M 743.56501,635.71326 c -10.18944,5.29068 -18.75578,17.6922 -20.5682,29.78104 -2.56903,17.1363 11.63719,35.68936 30.72681,40.12688 8.44856,1.96302 24.67958,-3.62876 32.45821,-11.18356 12.24717,-11.89388 14.11558,-32.08762 4.35655,-47.06404 -9.14536,-14.03446 -31.6456,-19.62046 -46.97337,-11.66032 m 553.80679,4.91236 c -9.0796,4.53596 -16.038,17.8968 -14.739,28.29864 1.8124,14.49192 13.438,24.90148 28.0574,25.11766 21.1394,0.31464 35.0756,-21.5217 25.9746,-40.70016 -6.8,-14.33172 -24.556,-20.07792 -39.293,-12.71614 m -122.5676,5.74812 c -10.3574,1.48432 -20.2672,14.48808 -20.2672,26.59428 0,7.63394 7.1862,19.98142 14.0712,24.1796 7.4544,4.54562 20.5566,4.94902 28.4338,0.8763 8.1706,-4.2252 15.401,-15.79866 15.401,-24.65056 0,-9.11246 -3.814,-16.75218 -11.6602,-23.35346 -6.0204,-5.06678 -11.1046,-5.77902 -25.9786,-3.64616 m 249.9414,14.5151 c -10.1644,6.91784 -14.156,13.68124 -14.3144,24.26452 -0.079,5.171 1.1272,11.77808 2.681,14.68496 3.7138,6.94292 17.0534,14.62124 25.334,14.58264 9.0332,-0.0444 20.8944,-7.28264 25.2044,-15.37982 13.249,-24.89956 -16.0958,-53.67688 -38.905,-38.1523 m -382.8202,22.67018 c -8.6492,7.59534 -11.6602,15.27366 -10.394,26.50934 0.8396,7.45636 2.4126,10.36324 8.8576,16.37582 7.0278,6.55302 8.8944,7.30966 18.0454,7.30194 13.1988,-0.009 21.7746,-5.13626 26.685,-15.95696 2.0384,-4.48964 3.706,-9.89998 3.706,-12.0232 0,-2.12322 -1.6676,-7.53358 -3.706,-12.02322 -4.891,-10.77436 -13.496,-15.9473 -26.5422,-15.95694 -8.4348,-0.005 -11.1334,0.93036 -16.6518,5.77322 m 775.5558,-2.15218 c -21.0624,9.56608 -28.067,34.45598 -14.9494,53.121 14.1754,20.16672 36.5464,23.61984 53.9606,8.3288 7.6146,-6.68426 14.044,-18.76346 14.0942,-26.4746 0.1372,-20.77858 -17.1728,-38.51904 -37.5848,-38.51904 -4.2464,0 -11.2318,1.59434 -15.5206,3.54384 m -269.2492,23.04658 c -10.6606,4.72512 -19.219,16.99346 -19.2286,27.5671 -0.013,12.94004 12.5964,26.29508 26.602,28.17318 10.5638,1.41676 23.5812,-5.94116 28.3738,-16.03802 3.8778,-8.17054 2.9262,-21.63946 -2.0652,-29.25796 -5.6054,-8.5527 -24.6352,-14.45332 -33.682,-10.4443 m -1392.61314,19.1495 c -12.57139,4.49736 -21.13761,10.7068 -28.16932,20.4157 -30.75964,42.46244 10.10844,100.1638 60.55804,85.49814 14.28734,-4.15378 25.72955,-13.24116 33.08168,-26.27578 5.40262,-9.57958 5.98554,-12.21816 5.96431,-27.02278 -0.0192,-13.08482 -0.86859,-17.99524 -4.19819,-24.24908 -13.09446,-24.59652 -42.77705,-37.12158 -67.23652,-28.3662 m 234.29714,5.89096 c -18.71135,9.74558 -28.15002,32.3868 -22.13166,53.09204 8.13772,27.99174 39.28919,41.42014 65.30054,28.15002 27.76205,-14.16186 33.39244,-50.97654 11.19322,-73.17576 -14.68494,-14.68302 -35.67392,-17.79642 -54.3621,-8.0663 m 542.68683,9.57186 c -21.95785,11.03108 -20.12224,42.95656 2.98034,51.7795 11.63521,4.44332 20.95026,2.39152 29.93146,-6.5897 9.79197,-9.7919 11.4538,-19.95052 5.28694,-32.3173 -7.49117,-15.02468 -23.30916,-20.35396 -38.19874,-12.8725 m 1444.58957,12.7895 c -13.1814,6.13802 -22.1742,14.39542 -27.9126,25.6311 -6.3504,12.43048 -6.8522,37.97472 -0.9786,49.81842 9.4212,19.00088 28.3102,30.57434 50.0596,30.67086 22.4908,0.10039 40.733,-10.81298 50.8762,-30.43344 6.939,-13.42454 7.2266,-34.59496 0.6428,-47.46358 -14.3742,-28.0979 -46.319,-40.50136 -72.6874,-28.22336 m -1747.66923,2.34712 c -3.71574,1.60978 -9.21479,5.2675 -12.22214,8.12806 -16.72901,15.92028 -13.83746,46.35178 5.54358,58.3306 8.26899,5.11116 28.17122,5.78288 36.89381,1.24498 11.71439,-6.09172 19.99299,-19.6224 19.92739,-32.56246 -0.13518,-26.47846 -26.87603,-45.21876 -50.14264,-35.14118 m 1512.37603,1.27392 c -11.3882,3.00726 -26.681,19.03948 -29.7366,31.1785 -5.8292,23.14888 3.1656,43.20556 23.973,53.44912 10.6838,5.2598 13.8762,5.9624 23.8264,5.24242 23.0176,-1.66382 40.6422,-19.20546 42.2984,-42.0957 1.106,-15.29488 -3.43,-26.5769 -15.0632,-37.45742 -12.915,-12.08112 -26.714,-15.22348 -45.298,-10.31692 m -488.786,20.75542 c -14.3838,6.39476 -20.4776,26.43986 -12.1758,40.05548 11.1508,18.29056 38.1524,18.44884 48.9942,0.28954 8.7998,-14.73706 3.5226,-31.91776 -12.245,-39.87598 -10.234,-5.1652 -13.8532,-5.2347 -24.5734,-0.46904 m -412.3716,22.39996 c -18.9756,18.97578 8.881,49.74122 29.4028,32.47366 6.3522,-5.34664 10.1568,-15.47054 8.46,-22.50998 -0.5828,-2.41468 -3.2736,-6.77692 -5.9836,-9.6973 -4.256,-4.5881 -6.4082,-5.30806 -15.8816,-5.30806 -9.238,0 -11.7472,0.79138 -15.9976,5.04168 m 97.9364,5.3814 c -5.0668,5.06676 -6.5626,8.1686 -6.5626,13.6079 0,13.3145 9.7494,24.23556 21.6182,24.21626 7.1996,-0.0119 16.9818,-7.23244 20.186,-14.90112 6.1824,-14.7969 -4.3874,-29.46256 -21.2476,-29.478 -5.8832,-0.005 -8.7978,1.35886 -13.994,6.55496 m -191.1262,6.775 c -5.9914,3.65192 -10.3864,12.31272 -10.3864,20.46782 0,8.49288 13.4438,20.24006 23.1622,20.24006 11.5002,0 21.2322,-11.10444 21.2322,-24.224 0,-5.4393 -1.4958,-8.54112 -6.5626,-13.6079 -7.7614,-7.76132 -17.725,-8.80556 -27.4454,-2.87598 m 775.2042,1.48046 c -30.4584,15.63268 -24.11,59.08916 9.9714,68.26726 28.7658,7.74588 53.5804,-25.5539 39.9802,-53.64988 -5.4084,-11.17392 -16.2136,-18.28284 -29.3176,-19.29232 -8.159,-0.62926 -11.9866,0.2374 -20.634,4.67494 m -1087.66678,6.34456 c -17.8968,7.49496 -23.04079,34.12976 -9.01203,46.66448 6.57804,5.87746 19.14759,10.06984 24.72963,8.24774 16.97999,-5.54354 22.88639,-13.0578 22.88639,-29.11126 0,-10.02158 -0.76439,-12.73738 -4.82543,-17.13824 -8.48334,-9.19546 -23.38254,-13.01532 -33.77856,-8.66272 m 598.16858,10.49256 c -5.6014,5.60144 -6.5628,7.89064 -6.5628,15.6346 0,7.74396 0.9614,10.03318 6.5628,15.63462 5.389,5.3891 8.018,6.56266 14.7042,6.56266 6.883,0 9.2978,-1.15812 15.6346,-7.49302 8.3038,-8.30372 9.3808,-14.0036 4.5668,-24.14872 -3.6828,-7.7594 -11.9864,-12.75282 -21.209,-12.75282 -5.5396,0 -8.601,1.46696 -13.6966,6.56268 m -377.7264,16.63058 c -5.9914,4.71356 -9.9192,15.65584 -8.1666,22.75126 1.824,7.37914 10.2724,15.57476 17.445,16.92012 21.5546,4.04184 34.8344,-23.56772 18.3988,-38.2546 -7.493,-6.69586 -20.1436,-7.34248 -27.6772,-1.41678 m 694.472,19.13406 c -9.7572,2.35484 -14.299,5.7327 -18.3312,13.63686 -5.3312,10.44816 -4.9798,20.6396 1.0154,29.46062 6.0414,8.89242 13.7178,13.01532 24.2296,13.01532 22.8942,0 36.1778,-26.98418 22.2668,-45.2284 -5.2328,-6.86572 -15.3836,-12.92076 -20.9156,-12.48066 -1.3608,0.11 -5.0802,0.82804 -8.265,1.59626 m -228.4526,6.95644 c -15.648,13.16782 -9.1568,36.23368 10.9558,38.9321 9.6434,1.29324 18.3948,-3.49366 22.6046,-12.36678 9.6974,-20.43888 -16.343,-41.0534 -33.5604,-26.56532 m -983.71217,25.78166 c -18.35804,8.47358 -26.62703,28.33532 -19.19963,46.1163 6.1554,14.7332 18.99503,23.975 33.53918,24.13906 19.68221,0.22198 38.78725,-17.87942 38.72164,-36.68534 -0.0237,-6.60128 -7.75361,-23.49052 -12.80683,-27.9763 -10.4192,-9.24952 -27.26217,-11.58892 -40.25436,-5.59372 m 439.9926,-0.93422 c -7.92724,3.45312 -12.45361,10.93072 -12.45361,20.57398 0,10.923 9.73215,21.10674 20.17059,21.10674 13.31457,0 24.23559,-9.74944 24.21619,-21.61824 -0.016,-9.96754 -12.88781,-22.91144 -22.57557,-22.70106 -1.91083,0.0424 -6.12062,1.22954 -9.3576,2.63858 m -665.82577,20.2034 c -16.37387,4.24642 -29.97212,18.84452 -34.06414,36.56954 -4.36225,18.90436 7.24982,40.97232 26.2063,49.7991 27.2795,12.7026 58.05458,-3.401 64.57094,-33.79004 4.02253,-18.75188 -6.39282,-39.99758 -23.72022,-48.38622 -9.44446,-4.57264 -24.26645,-6.45458 -32.99288,-4.19238 m 441.07551,2.70614 c -10.2648,5.4277 -15.46676,14.51508 -15.46676,27.0189 0,8.07788 0.94962,10.29182 7.36377,17.16912 6.29439,6.74604 8.77265,8.02962 17.03202,8.82294 13.57503,1.30482 23.98462,-4.20204 29.50699,-15.60952 3.42801,-7.07996 3.82179,-9.87102 2.32965,-16.50898 -2.55165,-11.36502 -7.08763,-17.34476 -16.33141,-21.54294 -10.48481,-4.75988 -14.4012,-4.65564 -24.43426,0.65048 m 847.71423,12.3494 c -10.9848,5.4142 -14.9282,18.25196 -9.0798,29.56292 4.0824,7.89452 10.2552,11.60242 19.3136,11.60242 23.1546,0 30.7076,-31.3773 9.927,-41.23868 -8.2708,-3.92604 -12.0752,-3.91252 -20.1608,0.0734 m 624.037,18.44112 c -32.5336,11.59662 -42.6498,51.09622 -19.605,76.54202 6.7092,7.41 22.1392,13.6986 33.6626,13.7198 34.1124,0.064 56.0838,-37.6215 39.598,-67.91398 -6.2982,-11.56768 -14.465,-18.25582 -26.853,-21.98304 -10.5156,-3.16552 -18.636,-3.27554 -26.8026,-0.3648 m -224.544,9.49464 c -4.8948,2.4224 -10.4964,7.36564 -13.5112,11.9209 -4.3874,6.63024 -5.1498,9.84788 -5.1498,21.7379 0,12.68328 0.5366,14.61928 5.8928,21.23798 11.8032,14.5826 30.4856,18.97 46.3344,10.8824 9.29,-4.7425 13.3106,-9.0236 17.1866,-18.2963 13.4534,-32.2015 -19.443,-62.98044 -50.7528,-47.48288 M 79.700285,963.5208 c -25.907122,5.31384 -43.572301,27.65974 -43.425602,54.9373 0.08498,15.6308 4.535962,26.3878 15.841139,38.2855 10.523441,11.0735 20.13004,15.2949 37.119643,16.3102 11.733675,0.7006 16.356505,0.1178 23.260825,-2.9378 11.37273,-5.0301 21.83247,-14.4186 28.27741,-25.3821 4.64598,-7.9022 5.2347,-10.8593 5.2347,-26.2758 0,-15.3567 -0.59644,-18.3793 -5.14398,-26.05768 C 127.5306,969.88466 103.65019,958.60844 79.700285,963.5208 m 828.520325,1.81824 c -6.499,2.627 -12.33017,11.48468 -12.33017,18.73258 0,25.01348 32.15914,33.03728 41.25997,10.29374 3.87581,-9.68572 3.90282,-12.2529 0.20658,-19.40042 -4.98182,-9.63554 -18.25778,-14.02096 -29.13638,-9.6259 m 904.65119,9.1009 c -9.6452,5.07834 -14.1638,12.33588 -15.0382,24.1545 -0.5732,7.75356 0.1544,11.66036 3.0246,16.22136 3.9956,6.3542 17.9066,14.2584 25.0946,14.2584 12.1738,0 26.1136,-11.8958 28.4356,-24.2684 1.7296,-9.22634 -3.648,-22.77632 -11.168,-28.12876 -8.0124,-5.70568 -21.8268,-6.72482 -30.3486,-2.2371 m 641.3142,21.12216 c -11.3592,4.02446 -25.4458,17.1112 -30.802,28.6133 -9.3326,20.0393 -4.9974,45.4407 10.4982,61.5212 12.17,12.6293 20.049,15.733 39.9456,15.733 19.9254,0 27.8914,-3.1462 39.8392,-15.733 22.6954,-23.9113 20.74,-59.0139 -4.4934,-80.6128 -14.1292,-12.09466 -36.699,-16.00332 -54.9876,-9.5217 m -791.4142,11.228 c -3.8546,1.6908 -7.6724,5.6651 -10.1952,10.6083 -7.935,15.5516 1.5692,30.9778 19.0838,30.9778 10.7454,0 16.9336,-3.8643 20.7264,-12.9401 7.4564,-17.8485 -11.7896,-36.46528 -29.615,-28.646 m -969.08698,28.065 c -18.08019,11.0234 -18.69004,39.8799 -1.03262,48.9036 14.4012,7.3617 30.2848,4.119 38.86642,-7.9312 5.57836,-7.8347 5.7076,-23.533 0.26837,-32.3366 -7.12439,-11.5272 -26.25077,-15.8624 -38.10217,-8.6358 m 162.63659,12.3688 c -12.4652,5.501 -17.58601,18.4913 -11.74522,29.7887 10.94619,21.1666 41.66338,13.66 41.66338,-10.1818 0,-9.3518 -4.397,-15.5477 -13.6658,-19.2556 -9.04497,-3.6192 -8.85974,-3.6153 -16.25236,-0.3513 m -372.52829,5.4122 c -31.96601,11.172 -34.83622,53.7773 -4.65949,69.1726 15.04011,7.6725 36.24916,2.3123 45.17635,-11.4172 11.40545,-17.5416 10.176,-34.0274 -3.56319,-47.7666 -11.01956,-11.0195 -23.9808,-14.5247 -36.95367,-9.9888 m 1376.06748,40.9473 c -17.1538,7.4698 -22.5294,31.6398 -10.0158,45.0392 9.6972,10.3845 22.147,12.8339 34.2688,6.7422 20.6182,-10.3574 20.684,-39.8084 0.112,-50.1813 -9.7803,-4.9317 -15.8025,-5.3274 -24.3649,-1.6001 m -159.1256,5.0301 c -6.966,7.4582 -8.653,15.1173 -5.1536,23.392 4.1654,9.8479 10.1336,14.1947 19.4834,14.1947 10.1896,0 18.003,-5.0166 21.7379,-13.9573 2.5942,-6.2113 2.5614,-7.7439 -0.3359,-15.3315 -3.7716,-9.873 -10.4925,-14.1407 -22.2667,-14.1407 -6.4237,0 -9.0874,1.1562 -13.4651,5.8428 m 348.4858,22.3343 c -30.2366,11.0677 -32.8558,52.0266 -4.2677,66.7424 16.2542,8.3674 34.5101,4.1403 46.5931,-10.7879 5.3698,-6.636 5.8929,-8.5353 5.8929,-21.4001 0,-12.8416 -0.5327,-14.7892 -5.9025,-21.5352 -6.8928,-8.6608 -20.4062,-16.1616 -28.7678,-15.9686 -3.2253,0.075 -9.3209,1.4033 -13.548,2.9494 M 267.29448,1121.77 c -26.09629,5.2811 -43.34454,33.8229 -35.08522,58.0546 4.08816,11.9981 12.96707,22.7822 22.89988,27.8161 12.21622,6.1902 31.20165,6.665 42.19799,1.0558 8.61062,-4.3931 18.90437,-15.5323 22.66053,-24.5212 3.78126,-9.0488 3.31416,-25.8473 -0.99598,-35.9036 -7.98137,-18.6206 -31.36572,-30.613 -51.6772,-26.5017 m 551.49443,17.8409 c -17.04955,8.628 -13.2952,34.9076 5.71721,40.0284 14.76403,3.9743 26.98999,-6.1283 26.98999,-22.3034 0,-10.1779 -10.2088,-20.1822 -20.5566,-20.1416 -4.08634,0.015 -9.55456,1.1021 -12.1506,2.4166 m 1438.85679,3.0864 c -17.3622,7.9061 -29.9124,30.8793 -27.1039,49.6119 1.7333,11.558 11.6449,25.5789 23.0389,32.5914 7.769,4.7811 11.5387,5.8195 21.2322,5.8465 16.2194,0.044 21.2592,-1.7294 31.3638,-11.0446 14.1522,-13.0443 16.1286,-18.6245 13.8761,-39.1656 -2.2409,-20.4524 -6.0763,-26.8105 -21.5121,-35.6624 -12.1428,-6.9641 -28.4742,-7.8346 -40.895,-2.1772 m -1596.2743,15.5033 c -13.73919,8.0239 -18.7654,26.9186 -10.68362,40.1713 6.81163,11.172 24.96902,17.2753 35.42103,11.9055 7.94858,-4.0843 14.89538,-12.1313 16.9008,-19.5819 6.3214,-23.4789 -20.81337,-44.6551 -41.63821,-32.4949 m 1067.9074,32.1706 c -6.4314,3.4898 -11.1238,12.0406 -11.1238,20.2729 0,4.5283 1.9438,8.0567 7.493,13.6079 5.5514,5.5493 9.0798,7.493 13.608,7.493 13.5288,0 23.2936,-9.7629 23.2936,-23.2878 0,-6.5028 -1.216,-9.1974 -6.5626,-14.5441 -5.2406,-5.2404 -8.0606,-6.5472 -13.994,-6.4854 -4.0862,0.042 -9.8092,1.3666 -12.7142,2.9435 m 154.47,18.169 c -19.9274,6.082 -28.7658,29.9644 -16.7464,45.2458 5.7982,7.3714 13.6928,10.7724 25.0018,10.7724 9.012,0 10.6972,-0.7219 17.4682,-7.493 7.0588,-7.0588 7.493,-8.1744 7.493,-19.2113 0,-14.1792 -2.1444,-19.3676 -10.2396,-24.7779 -7.4854,-5.0031 -15.9628,-6.6766 -22.977,-4.536 M 40.189124,1220.9861 c -11.471164,5.6188 -17.595684,11.1237 -24.741282,22.2359 -5.116958,7.9563 -5.5184389,9.9656 -5.5184389,27.5825 0,22.2649 2.6269999,29.1016 15.8739569,41.3121 12.268341,11.309 23.102542,14.9126 41.51664,13.8106 12.496102,-0.747 16.605486,-1.8956 24.683366,-6.8986 30.680514,-19.0028 35.899774,-59.9906 10.963534,-86.0675 -15.920277,-16.6461 -42.784778,-21.7707 -62.777776,-11.975 m 423.325336,-2.8798 c -8.9484,2.7215 -16.86607,7.6686 -21.956,13.7179 -4.57458,5.4354 -5.0552,7.5471 -5.0552,22.1992 0,15.5053 0.26444,16.4935 6.25578,23.3168 15.6211,17.7906 39.30849,18.7963 54.7964,2.3278 8.51411,-9.0526 10.36517,-13.4651 10.36517,-24.7104 0,-17.0398 -10.18952,-30.887 -26.82783,-36.4576 -7.34634,-2.4591 -10.55046,-2.5305 -17.57832,-0.3937 m 2013.73934,11.0407 c -11.8476,4.1943 -26.1946,17.918 -31.414,30.0474 -11.971,27.818 -0.6794,58.9598 26.1368,72.0794 9.2804,4.5398 12.1912,5.0204 26.4072,4.3604 18.0646,-0.8378 27.4106,-4.4646 37.494,-14.546 11.4634,-11.4635 14.1928,-19.2789 14.1928,-40.6327 0,-17.586 -0.4112,-19.6494 -5.5146,-27.6983 -14.5112,-22.8825 -42.0628,-32.547 -67.3022,-23.6102 m -1676.7344,8.8712 c -4.08621,3.6461 -4.95283,6.3059 -5.39681,16.59 -0.49036,11.3284 -0.12384,12.5965 4.86799,16.8893 9.72424,8.3655 28.7696,5.0262 33.75721,-5.9199 5.28878,-11.6083 1.52284,-24.5367 -8.66475,-29.7463 -7.22847,-3.6964 -19.16103,-2.6348 -24.56364,2.1869 m 1256.3064,37.8898 c -36.1952,16.4414 -24.309,70.4888 15.4242,70.1318 12.195,-0.1107 19.5432,-3.5264 27.7986,-12.9284 5.5456,-6.3156 6.0956,-8.1378 6.3042,-20.8481 0.301,-18.3099 0.2296,-18.6573 -5.4838,-26.2005 -9.6316,-12.7143 -28.7214,-17.1151 -44.0432,-10.1548 m -321.5054,3.0169 c -7.192,4.0573 -11.8554,12.1139 -12.085,20.8731 -0.168,6.3987 0.9148,8.5933 6.9834,14.1542 8.4484,7.742 18.1188,8.7612 27.7022,2.9166 5.418,-3.3026 6.0956,-4.8159 7.132,-15.9165 1.081,-11.5619 0.8378,-12.5791 -4.2368,-17.7173 -6.5008,-6.582 -18.0184,-8.5295 -25.4958,-4.3101 m -1075.8792,5.9064 c -12.67943,4.4858 -16.40676,10.4346 -16.40676,26.187 0,12.5347 0.43054,13.9033 6.43733,20.4581 5.63224,6.1458 7.80762,7.138 17.38524,7.9312 9.25536,0.7682 11.98262,0.2008 17.65359,-3.675 8.10102,-5.5358 15.41262,-20.8694 13.56924,-28.455 -2.17143,-8.9369 -10.41143,-19.4043 -17.65545,-22.4328 -8.45238,-3.5303 -11.03695,-3.5323 -20.98319,-0.014 m -397.19626,48.365 c -11.85914,3.0962 -21.2148,10.3074 -27.67711,21.3346 -4.83901,8.2574 -5.0687,9.7358 -3.88163,25.1658 1.33377,17.3468 3.80636,24.172 11.1662,30.8196 8.2072,7.41 14.58458,10.5312 25.06362,12.2664 20.29604,3.3586 40.52452,-7.2826 49.17954,-25.8686 6.13802,-13.1812 6.00098,-25.3918 -0.4343,-38.9958 -9.7282,-20.5624 -31.22868,-30.5144 -53.41632,-24.722 m 545.43745,0.7682 c -4.38356,2.6734 -6.80596,6.1072 -8.34817,11.8342 -4.22322,15.6848 3.11736,26.7852 18.70361,28.2832 8.67819,0.8338 10.42118,0.332 15.92997,-4.59 20.4138,-18.2424 -2.91842,-49.776 -26.28541,-35.5274 m 1063.42361,5.8622 c -17.4472,10.6372 -18.557,36.7876 -2.0732,48.8668 6.7944,4.9798 25.4672,4.8544 32.4912,-0.2144 7.7188,-5.5724 14.0074,-19.9118 12.4266,-28.339 -3.625,-19.3234 -26.602,-30.2174 -42.8446,-20.3134 m 393.2952,10.919 c -22.2146,7.3194 -34.6876,23.5754 -34.7242,45.2612 -0.049,26.9264 23.9344,48.6314 50.2854,45.5102 25.1448,-2.9782 41.1712,-21.4734 40.6308,-46.8922 -0.4074,-19.1282 -8.9852,-32.3636 -26.274,-40.538 -9.07,-4.287 -22.4944,-5.7868 -29.918,-3.3412 m -541.4206,24.1564 c -12.1546,6.721 -17.007,17.8602 -12.5116,28.7138 7.603,18.358 33.7612,17.6864 41.5978,-1.0674 7.1166,-17.0342 -13.2586,-36.3998 -29.0862,-27.6464 m -1250.64706,10.7282 c -14.55756,3.7078 -26.66762,19.9794 -26.8066,36.0194 -0.28952,33.1472 39.2448,49.8802 62.62145,26.5054 13.04239,-13.0442 14.19279,-36.365 2.47839,-50.2856 -8.82297,-10.4848 -24.94592,-15.6384 -38.29324,-12.2392 m 203.24223,27.8584 c -10.2204,5.9258 -15.90876,16.9954 -14.28737,27.8084 2.15601,14.3742 15.35859,25.9844 29.45678,25.9014 8.16465,-0.049 20.3752,-7.8444 24.1854,-15.4396 13.00563,-25.9208 -14.51134,-52.6772 -39.35481,-38.2702 m 158.31865,14.0692 c -5.46624,3.0884 -11.35143,13.6002 -11.35143,20.2748 0,11.5928 11.05619,21.3268 24.224,21.3268 5.43923,0 8.54104,-1.4958 13.60783,-6.5626 5.55517,-5.5552 6.56276,-7.9216 6.56276,-15.4108 0,-12.3726 -7.30396,-20.5488 -19.36379,-21.678 -5.42,-0.5058 -10.5022,0.2548 -13.67937,2.0498 M 2037.9252,1440.54 c -4.0688,1.131 -10.7106,5.2096 -14.7582,9.0642 -23.9384,22.7938 -6.7152,62.662 27.069,62.662 29.5206,0 46.4888,-32.9408 29.5244,-57.3192 -9.1202,-13.106 -25.8146,-18.8562 -41.8352,-14.407 m -195.506,21.7418 c -3.3122,1.4418 -8.5236,5.9006 -11.581,9.9096 -4.401,5.7732 -5.5282,9.1994 -5.4182,16.4724 0.278,18.4622 14.1562,30.5782 32.2498,28.15 27.3374,-3.6656 33.572,-39.9668 9.0854,-52.9146 -9.4232,-4.9838 -15.652,-5.3968 -24.336,-1.6174 m -160.7892,8.956 c -5.0186,5.0186 -5.9394,7.4082 -5.9394,15.4108 0,7.6068 1.0462,10.643 5.3082,15.4126 10.367,11.6024 28.729,8.5508 36.2684,-6.028 4.227,-8.1744 2.322,-17.422 -5.1248,-24.8686 -4.92,-4.9202 -7.3732,-5.866 -15.2196,-5.866 -7.8712,0 -10.2956,0.942 -15.2928,5.9392 M 72.66086,1471.744 c -24.787616,8.211 -39.474496,26.8838 -40.204115,51.1194 -0.540445,17.947 3.663519,28.6904 16.117159,41.1866 11.797378,11.8398 23.934461,17.061 39.65786,17.061 30.080216,0 54.881336,-25.3628 54.881336,-56.1244 0,-20.406 -13.93796,-42.2308 -32.15132,-50.3454 -10.70681,-4.7676 -28.570797,-6.1206 -38.30092,-2.8972 m 2381.52514,9.7282 c -25.1428,8.2246 -39.5246,27.6984 -39.5556,53.5552 -0.037,31.4508 23.62,54.7946 55.337,54.6054 21.566,-0.1278 37.8858,-9.3402 48.4364,-27.3432 7.8984,-13.4786 8.8904,-34.6606 2.293,-49.0116 -2.6134,-5.6864 -7.103,-13.1196 -9.9752,-16.5148 -11.5986,-13.714 -38.8336,-21.0796 -56.5356,-15.291 m -1578.7556,36.7142 c -5.71142,5.7116 -6.56262,7.8136 -6.56262,16.206 0,8.6242 0.72183,10.2784 6.82321,15.6346 14.96863,13.1446 35.64104,2.5692 35.64104,-18.2326 0,-10.5002 -10.17784,-20.1706 -21.23206,-20.1706 -6.64576,0 -9.29015,1.1832 -14.66957,6.5626 m -150.46861,12.6602 c -6.25776,2.5344 -15.9936,14.8182 -17.31198,21.8422 -1.57304,8.3868 3.56503,21.1898 11.02339,27.4648 4.57841,3.8526 7.8424,4.8178 16.28898,4.8178 18.76922,0 29.66125,-9.9232 29.66125,-27.0228 0,-20.4292 -20.89044,-34.705 -39.66164,-27.102 m -428.90363,11.8746 c -17.98944,8.906 -29.62662,29.9896 -26.69078,48.3534 3.81986,23.892 26.15998,42.0804 48.87648,39.793 30.26744,-3.0478 49.29728,-30.9198 41.09972,-60.201 -7.09541,-25.3434 -39.571,-39.6828 -63.28542,-27.9454 m 217.66661,6.721 c -19.61087,8.5044 -28.13077,29.503 -19.50471,48.0754 7.1398,15.374 17.88715,22.1974 34.96752,22.1974 11.66999,0 18.52022,-3.1964 26.61939,-12.4228 25.43026,-28.9626 -6.73455,-73.1778 -42.0822,-57.85 m 1122.23283,-0.332 c -3.2736,1.4264 -7.8348,4.9838 -10.1336,7.906 -12.002,15.2584 5.4162,39.8162 23.9114,33.711 19.6088,-6.47 21.8594,-32.7458 3.5514,-41.4336 -7.4274,-3.5246 -9.6026,-3.5478 -17.3292,-0.1834 m 580.1886,8.2536 c -8.8712,3.1886 -20.987,12.994 -25.1156,20.3268 -18.1516,32.244 3.9182,70.2052 40.3082,69.329 31.7132,-0.7626 51.4708,-28.704 42.6806,-60.3554 -2.9436,-10.593 -15.706,-23.9364 -26.3742,-27.571 -8.6956,-2.9628 -25.4998,-3.8856 -31.499,-1.7294 m -433.8294,21.8074 c -19.8984,12.1312 -17.9412,42.3968 3.289,50.8916 10.454,4.1826 14.9842,3.955 24.2336,-1.22 9.7552,-5.4566 17.0882,-18.6766 15.6346,-28.1906 -3.0748,-20.1454 -26.349,-31.7304 -43.1572,-21.481 m -841.41218,10.7414 c -6.03959,3.0806 -12.20079,12.7684 -12.20079,19.1862 0,6.165 6.30598,16.5746 11.74535,19.387 12.90524,6.6726 28.02445,0.4168 32.61446,-13.494 2.48418,-7.522 -0.49023,-16.9086 -7.26905,-22.9462 -5.55899,-4.949 -17.38141,-5.9624 -24.88997,-2.133 m 1037.82718,9.6066 c -21.1452,9.4792 -29.3294,34.8922 -17.4876,54.3042 5.6286,9.2244 19.549,16.5844 31.7054,16.76 26.936,0.3898 44.2654,-28.648 32.0974,-53.783 -8.078,-16.6886 -29.6692,-24.7452 -46.3152,-17.2812 m -412.4544,19.1612 c -15.1734,6.5974 -16.2504,32.601 -1.6272,39.2622 13.2662,6.0452 27.6848,0.6098 31.8482,-12.006 3.8856,-11.7722 -1.1484,-22.4732 -12.913,-27.4532 -7.605,-3.2196 -9.5062,-3.1982 -17.308,0.197 m -771.869,20.3732 c -26.934,13.3318 -17.27523,54.0088 12.82223,54.0088 14.15616,0 26.57697,-12.0772 28.26397,-27.484 1.05963,-9.6722 -4.17316,-18.9178 -14.73123,-26.0326 -8.0412,-5.42 -16.09597,-5.5706 -26.35497,-0.4922 m 218.066,16.177 c -5.528,5.528 -6.5626,7.937 -6.5626,15.293 0,21.4464 25.3994,30.2018 38.6696,13.3318 5.3138,-6.7556 5.2348,-22.1664 -0.1428,-27.544 -9.7688,-9.7686 -22.8342,-10.2106 -31.9642,-1.0808 m 471.814,19.5452 c -3.0768,1.6716 -6.4276,6.165 -8.352,11.2086 -2.8972,7.5818 -2.9282,9.1028 -0.3224,15.3394 3.2872,7.8674 11.9884,13.2738 21.8152,13.5518 19.2672,0.5462 28.2908,-26.9938 12.83,-39.154 -5.8794,-4.6248 -18.362,-5.0784 -25.9708,-0.9458 m 222.2854,3.0786 c -7.8268,3.1116 -15.3546,11.5794 -17.555,19.748 -4.065,15.098 7.35,32.0258 23.6314,35.0446 9.622,1.7834 23.3824,-4.4028 28.7212,-12.913 5.671,-9.0372 4.5804,-26.4264 -2.1058,-33.5836 -9.205,-9.8536 -21.151,-12.886 -32.6918,-8.296 m -603.9378,20.1494 c -10.9094,9.18 -9.6182,28.4086 2.3972,35.7356 15.8394,9.6568 34.0624,-1.3144 34.0624,-20.5064 0,-5.4392 -1.496,-8.541 -6.5628,-13.6078 -8.601,-8.601 -20.8132,-9.263 -29.8968,-1.6214 m -511.05677,-0.2084 c -7.70143,3.3508 -17.70564,13.7198 -19.50265,20.213 -0.75661,2.735 -1.3878,9.813 -1.40137,15.7292 -0.0777,35.2106 47.5408,47.616 66.92579,17.4354 5.14399,-8.0064 5.64383,-10.176 5.03201,-21.8112 -0.57322,-10.9346 -1.57884,-14.048 -6.54919,-20.267 -3.22723,-4.04 -8.84801,-8.8654 -12.48839,-10.7204 -7.89839,-4.0284 -23.44222,-4.3082 -32.0162,-0.579 m 802.51477,11.473 c -6.3426,3.515 -9.7146,10.3034 -9.7958,19.7248 -0.1718,19.9794 24.6332,29.2772 37.4556,14.0402 8.0354,-9.5488 6.4006,-25.029 -3.4878,-33.0392 -4.9106,-3.9782 -17.617,-4.3604 -24.172,-0.7258 m -1243.64036,5.7038 c -42.4605,11.8668 -55.568478,64.3644 -23.45963,93.962 11.9653,11.0292 20.12425,14.1388 37.35127,14.2372 11.41134,0.066 16.46266,-0.884 23.8534,-4.4858 33.71091,-16.4202 42.4354,-59.041 17.71342,-86.5366 -14.04798,-15.623 -36.32633,-22.5234 -55.45846,-17.1768 m 1048.86016,4.4818 c -11.2182,5.5282 -15.6094,21.4678 -8.6974,31.5666 4.8216,7.047 6.2306,7.6068 19.2422,7.6396 10.9268,0.026 12.2972,-0.4536 16.8892,-5.9102 10.1586,-12.0714 3.8796,-30.113 -12.0156,-34.5274 -8.8016,-2.4456 -7.796,-2.5246 -15.4184,1.2314 m 93.0896,8.8346 c -5.7694,5.2888 -6.8618,7.5934 -6.9584,14.6734 -0.1814,13.301 4.785,18.3176 19.8,20.0006 11.0002,1.2334 12.7586,0.94 16.7194,-2.7794 15.2582,-14.3356 5.3698,-38.1678 -15.8392,-38.1678 -5.0706,0 -8.6782,1.6484 -13.7218,6.2732 m 1078.7842,-3.2272 c -11.2976,4.1652 -24.5,16.4356 -30.3814,28.2368 -13.0462,26.1812 -0.94,61.3166 25.55,74.1466 8.8906,4.3082 30.7578,5.7674 41.4606,2.768 22.2128,-6.225 38.525,-28.735 38.386,-52.9666 -0.1212,-21.0566 -10.014,-37.7104 -29.09,-48.973 -10.651,-6.2886 -33.2864,-7.8714 -45.9252,-3.2118 m -1486.47878,4.036 c -9.34403,4.6054 -16.6132,17.9778 -15.2582,28.0746 1.91676,14.297 12.69879,24.502 26.52282,25.1024 17.77138,0.774 29.02255,-9.0296 30.30035,-26.4032 1.6368,-22.2784 -21.04499,-36.888 -41.56497,-26.7738 m -492.60012,4.3642 c -33.26504,5.0338 -50.36274,40.673 -32.79794,68.3694 13.4033,21.1376 39.06336,28.3046 61.0213,17.0476 31.51242,-16.1558 32.3868,-63.187 1.48626,-79.7924 -11.31869,-6.084 -18.13808,-7.3754 -29.70962,-5.6246 m 1496.8689,8.6048 c -8.464,3.6924 -19.8328,17.1672 -21.3614,25.3164 -4.5072,24.029 12.2026,45.352 35.5446,45.352 31.9312,0 49.0926,-33.9464 29.8872,-59.124 -9.4098,-12.3378 -29.9336,-17.7152 -44.0704,-11.5444 m 234.8956,10.0408 c -24.6082,12.2626 -33.6126,40.7658 -20.2092,63.9706 12.6196,21.8518 36.9246,29.6132 59.6276,19.0434 23.7222,-11.0466 33.1492,-41.4124 19.9834,-64.3682 -12.2162,-21.3018 -37.8976,-29.3622 -59.4018,-18.6458 m -510.0106,6.4682 c -13.0134,3.955 -21.1704,15.013 -21.1704,28.704 0,14.2004 13.7352,27.376 28.5476,27.3818 14.6096,0.013 29.3584,-14.0422 29.3584,-27.9686 0,-11.948 -8.8886,-23.6662 -21.0374,-27.735 -7.3462,-2.461 -8.7438,-2.4958 -15.6982,-0.3822 m -625.7588,42.5454 c -22.92301,19.2112 -5.67861,56.1514 23.3612,50.0462 22.4618,-4.7232 30.4932,-30.5724 14.8142,-47.6818 -5.8176,-6.3464 -7.4196,-7.0046 -18.6726,-7.6666 -11.46541,-0.6756 -12.805,-0.3108 -19.5028,5.3022 m 506.2852,18.856 c -10.5696,5.3892 -14.6134,12.475 -14.6134,25.606 0,10.319 0.5982,11.95 6.7016,18.2462 13.0424,13.4554 30.611,13.3222 42.5918,-0.3222 9.6354,-10.9752 9.9134,-22.0448 0.8898,-35.6798 -7.1862,-10.8592 -22.8768,-14.322 -35.5698,-7.8502 m -791.2732,5.3004 c -16.20019,5.0532 -25.33777,18.0204 -25.33777,35.9634 0,19.1514 13.63695,33.3172 34.44637,35.782 8.01802,0.9498 11.03683,0.2896 19.34837,-4.2348 28.66526,-15.6018 24.68142,-58.3538 -6.29439,-67.553 -11.2936,-3.3528 -11.27818,-3.3528 -22.16258,0.042 m 411.084,18.6516 c -18.6998,12.8705 -17.5764,40.0226 2.0692,50.0462 12.8242,6.5414 31.3214,1.7448 37.2142,-9.653 11.033,-21.3345 0.168,-42.2714 -22.896,-44.1204 -7.9698,-0.639 -11.0696,0.066 -16.3874,3.7272 m 251.3988,11.4982 c -15.4726,9.5814 -16.735,36.7509 -2.1812,46.9443 6.2172,4.3545 30.0512,4.0805 35.4134,-0.4073 15.32,-12.8204 13.5634,-36.3804 -3.484,-46.7745 -8.0818,-4.9278 -21.5796,-4.8197 -29.7482,0.2375 m -125.9958,7.0143 c -8.9406,4.5591 -13.878,11.8244 -15.04,22.1355 -1.1446,10.1528 2.2834,17.9663 11.1624,25.4381 5.638,4.7425 6.9216,5.005 18.8888,3.843 13.853,-1.3434 19.4506,-4.7425 24.8186,-15.0671 6.0066,-11.5464 -0.83,-30.5319 -13.33,-37.0232 -7.1012,-3.6886 -18.5164,-3.399 -26.4998,0.6737 m 531.6328,0.6949 c -25.5462,14.8296 -27.793,48.529 -4.3218,64.7948 6.3234,4.3816 9.6548,5.2462 20.574,5.335 11.2878,0.092 14.0924,-0.6311 20.9986,-5.418 20.298,-14.0615 20.9504,-45.2864 1.2604,-60.3052 -6.1728,-4.7058 -9.3364,-5.6266 -20.96,-6.0956 -7.9234,-0.3184 -15.318,0.3918 -17.5512,1.689 m -1270.49919,45.238 c -36.34757,18.113 -33.1666,71.4116 5.08028,85.0832 15.04393,5.3775 30.04734,2.3606 44.30574,-8.9098 21.39634,-16.9124 22.76096,-49.3572 2.85281,-67.8523 -15.02265,-13.9553 -34.65664,-17.0842 -52.23883,-8.3211 m 1498.02119,13.2354 c -19.3116,8.9908 -30.6978,32.1069 -25.6638,52.0999 3.0496,12.1159 11.2896,22.9462 22.4462,29.5031 7.7632,4.5649 11.419,5.4374 22.761,5.4374 11.2916,0 15.0072,-0.8802 22.618,-5.3525 17.2116,-10.1181 26.739,-30.8117 22.6432,-49.1757 -6.5916,-29.5494 -37.6756,-45.1454 -64.8046,-32.5122 m -1167.54617,8.6068 c -4.25405,1.934 -10.50984,6.6726 -13.89741,10.533 -14.48802,16.4994 -9.11242,43.8078 10.82656,55.0146 8.88464,4.9934 26.43205,5.7018 34.74544,1.4032 7.36758,-3.8102 17.2656,-15.4262 18.61678,-21.8479 0.60998,-2.9011 1.40322,-6.7711 1.7642,-8.601 0.35901,-1.8298 -0.17561,-7.024 -1.19097,-11.5425 -5.0938,-22.6722 -29.5166,-34.6568 -50.8646,-24.9594 m -559.96211,7.242 c -10.40184,3.6886 -22.66632,14.3434 -29.04756,25.2335 -6.76727,11.5465 -8.5141,33.2129 -3.6944,45.8307 5.41035,14.1676 13.07131,22.8863 26.30089,29.9392 10.62381,5.6614 14.09624,6.5376 25.87431,6.5242 22.07182,-0.025 39.54204,-10.6412 49.14672,-29.8622 7.80186,-15.6134 8.32687,-34.1124 1.3878,-49.0116 -5.53387,-11.8861 -19.54518,-24.6293 -31.59348,-28.7348 -10.93264,-3.7253 -27.74082,-3.6886 -38.37428,0.082 m 1973.57968,7.6262 c -5.1516,1.5866 -13.0326,6.4238 -18.557,11.3902 -31.7382,28.536 -22.1296,78.451 18.0184,93.605 25.8242,9.7474 55.281,-2.0384 68.8406,-27.544 3.4724,-6.5298 4.3082,-11.2686 4.3276,-24.502 0.021,-14.5806 -0.61,-17.5512 -5.669,-26.683 -13.112,-23.6682 -40.5014,-34.4136 -66.9606,-26.2662 m -608.7074,13.521 c -14.515,7.549 -21.5932,21.1878 -19.6244,37.8166 2.2178,18.7228 14.4978,30.1612 34.456,32.0876 12.1218,1.1716 24.39,-4.785 31.7596,-15.4204 4.8236,-6.9584 5.5242,-9.7262 5.5242,-21.7958 0,-12.1796 -0.6466,-14.6734 -5.42,-20.933 -2.9802,-3.9086 -8.8094,-8.8346 -12.9516,-10.9482 -9.1742,-4.6806 -25.5444,-5.0724 -33.7438,-0.8068 m -650.66798,45.8732 c -16.4646,7.8442 -24.60422,24.8918 -20.05281,41.9952 8.45817,31.777 47.56579,38.6658 66.48559,11.7126 5.0224,-7.1572 5.8736,-10.1144 5.8736,-20.408 0,-9.9038 -0.9418,-13.4632 -5.3098,-20.0626 -6.0088,-9.0796 -16.8488,-15.4126 -28.9454,-16.9104 -6.21322,-0.7702 -10.6006,0.1238 -18.05118,3.6732 m 498.48158,15.569 c -9.6028,3.5574 -15.679,9.3884 -20.7922,19.9504 -10.2648,21.2072 5.3794,48.5542 29.6806,51.8858 13.054,1.7892 28.4744,-5.945 35.396,-17.754 6.9276,-11.8224 7.3386,-27.8392 0.9786,-38.1272 -9.4154,-15.235 -28.783,-22.0622 -45.263,-15.955 m -334.212,22.6006 c -4.5456,1.0886 -10.7068,4.7734 -15.017,8.9832 -15.3932,15.0304 -15.4184,38.3454 -0.058,52.6732 6.8793,6.4178 8.6859,7.076 22.6702,8.2592 17.5069,1.4786 22.7571,-0.5616 32.5161,-12.637 13.0656,-16.1654 6.7962,-44.8886 -11.8823,-54.445 -7.3386,-3.7542 -19.3503,-4.9588 -28.2291,-2.8336 m -489.60262,6.2076 c -21.72822,8.126 -33.17042,28.9646 -28.82362,52.486 1.12919,6.107 3.10378,12.5038 4.3854,14.2158 10.90363,14.5498 21.28042,20.9272 36.80119,22.62 13.15424,1.4342 28.36422,-4.9586 38.46105,-16.1674 19.41779,-21.5526 12.18156,-57.4272 -14.34904,-71.147 -8.21682,-4.2484 -27.62697,-5.3178 -36.47498,-2.0074 m 655.75402,-0.6466 c -3.094,0.9766 -8.9831,5.0552 -13.0886,9.0622 -15.955,15.5806 -15.7948,38.8394 0.3667,53.4394 7.6417,6.9044 7.9582,6.9952 24.4421,6.9952 15.069,0 17.3544,-0.498 23.367,-5.0842 20.3038,-15.486 17.2366,-49.7432 -5.5165,-61.585 -6.7209,-3.4974 -22.6277,-5.0184 -29.5707,-2.8276 m 544.15,9.51 c -37.3706,4.4086 -54.0842,50.8068 -27.7794,77.1134 10.4018,10.4018 21.4522,14.4244 36.9131,13.44 14.5575,-0.9266 26.0673,-7.6494 35.0968,-20.4968 4.5901,-6.5298 5.9373,-10.7512 6.5607,-20.5354 0.971,-15.2524 -1.9398,-24.4672 -10.84,-34.3208 -11.4556,-12.6796 -23.255,-17.1692 -39.9512,-15.2004 m -1409.49448,67.842 c -18.26354,3.538 -34.35754,16.1866 -41.38732,32.5278 -4.60545,10.7106 -4.94324,29.6208 -0.75278,42.2404 6.66305,20.0568 28.77348,35.066 51.7023,35.0988 48.43257,0.071 73.50395,-56.1514 41.1113,-92.1806 -13.01919,-14.4802 -32.36557,-21.2322 -50.6735,-17.6864 m 1624.48398,8.2014 c -33.6028,12.5772 -47.9634,47.1374 -32.4698,78.1442 23.587,47.203 92.306,37.913 103.9354,-14.05 5.2926,-23.6526 -7.0762,-48.8784 -29.5648,-60.2936 -11.8322,-6.0068 -31.2904,-7.771 -41.9008,-3.8006 m -1232.00518,21.9542 c -12.86663,3.9568 -26.51505,17.6478 -29.9972,30.084 -7.99483,28.5572 10.28996,56.8848 38.01337,58.8904 6.12062,0.442 14.67721,-0.1506 19.0144,-1.3184 31.74783,-8.5488 43.24023,-48.1294 21.59699,-74.384 -10.60075,-12.8628 -31.45839,-18.555 -48.62756,-13.272 m 828.35238,6.5434 c -26.849,6.331 -41.976,34.454 -32.3598,60.1584 9.9098,26.4862 40.4628,38.3376 64.5748,25.0482 5.7212,-3.154 12.226,-9.0064 16.2254,-14.6 5.7712,-8.0722 6.7962,-11.2202 7.5702,-23.2706 0.7412,-11.5638 0.1948,-15.3044 -3.21,-21.979 -6.3966,-12.5406 -15.9878,-20.9176 -27.9164,-24.3862 -11.6006,-3.372 -14.2584,-3.4744 -24.8842,-0.9708 m -623.4714,60.3842 c -31.553,11.7626 -42.0282,46.7958 -21.8866,73.2008 15.8218,20.744 52.0556,22.2996 70.0258,3.0074 16.3332,-17.5378 15.8662,-45.848 -1.0578,-64.0652 -11.2628,-12.1218 -32.466,-17.592 -47.0814,-12.143 m 416.5676,3.2988 c -13.77,3.3932 -26.1156,14.8354 -30.9274,28.6672 -7.1766,20.6204 -0.278,42.119 17.2926,53.899 l 9.651,6.47 17.3544,-1.3434 c 19.1764,-1.4844 22.23,-2.5788 31.387,-11.2474 12.5212,-11.8514 16.7522,-36.278 8.9638,-51.7504 -9.985,-19.8406 -32.1244,-30.0186 -53.7214,-24.695 m -213.3352,21.4212 c -15.8468,4.5458 -30.97,24.612 -30.9468,41.0592 0.025,18.3118 7.5414,32.0684 22.9212,41.9432 8.6568,5.559 9.3922,5.6864 25.3222,4.4164 18.5086,-1.4786 24.2356,-3.791 31.9178,-12.8898 16.4974,-19.5452 16.6016,-43.0898 0.2664,-60.8824 -4.4318,-4.8256 -11.531,-10.3614 -15.7776,-12.3012 -8.4098,-3.841 -22.979,-4.424 -33.7032,-1.3454 m -605.53217,31.7788 c -4.43165,1.5694 -11.9846,6.3098 -16.78105,10.5332 -27.8238,24.4904 -24.16036,69.437 7.24401,88.932 8.48901,5.2674 12.11964,6.2518 25.84341,7.0066 14.96481,0.8222 16.75602,0.4882 28.5766,-5.3332 41.52043,-20.4388 40.28519,-79.5994 -2.07881,-99.687 -11.365,-5.3892 -29.91816,-6.0184 -42.80416,-1.4516 m 1225.10277,5.9818 c -12.4034,4.3776 -27.511,20.1068 -31.8464,33.1588 -4.3544,13.11 -3.287,32.5992 2.3878,43.5916 13.7198,26.573 47.7492,38.3086 73.3842,25.3068 22.4018,-11.3592 32.3386,-28.6768 30.941,-53.9238 -0.8782,-15.8682 -4.6382,-24.9266 -14.598,-35.1838 -14.7314,-15.1674 -39.131,-20.4098 -60.2686,-12.9496 m -981.226,97.7452 c -36.82437,10.3228 -52.83722,53.978 -31.24022,85.1662 11.02141,15.9144 26.12139,23.89 45.52365,24.0426 49.49615,0.3898 74.87819,-59.234 40.14817,-94.3154 -13.51522,-13.6522 -36.46142,-19.9312 -54.4316,-14.8934 m 744.1456,7.105 c -12.5252,6.2578 -19.1456,12.7972 -26.0442,25.7218 -5.9624,11.1682 -5.9586,37.2182 0.013,48.479 8.5778,16.1904 26.6096,28.536 45.4502,31.1186 18.1594,2.488 40.9666,-8.8442 51.6272,-25.6542 14.542,-22.9308 11.2704,-50.635 -8.2632,-69.9756 -16.426,-16.2638 -41.7888,-20.1782 -62.7778,-9.6896 m -501.2726,46.8672 c -17.4586,5.7828 -27.8644,14.5538 -35.867,30.2288 -6.1496,12.0484 -6.1398,31.7634 0.025,45.7978 4.8852,11.1258 17.9084,24.3726 28.175,28.6616 3.9048,1.633 13.1158,2.7486 22.6683,2.7486 25.6176,0 40.3315,-9.2052 50.9051,-31.8482 12.1448,-26.0038 -0.3512,-58.5044 -27.762,-72.2068 -10.3826,-5.1924 -27.9744,-6.75 -38.1446,-3.3818 m 250.586,2.5074 c -11.2048,3.9684 -24.4594,16.2406 -30.3812,28.121 -10.0872,20.242 -5.6072,46.9386 10.591,63.1368 10.95,10.95 18.8001,13.6716 39.432,13.6716 21.2128,0 28.2909,-2.629 39.8392,-14.795 11.8843,-12.5212 14.1909,-18.7402 14.1986,-38.2854 0.013,-15.4726 -0.5714,-18.3562 -5.2868,-26.3782 -14.0904,-23.971 -42.6304,-34.6006 -68.3928,-25.4708"
     stroke="none"
     fill="#ffa404"
     fill-rule="evenodd"
     id="path1"
     style="stroke-width:1.9302" />
  <path
     d=""
     stroke="none"
     fill="#fca404"
     fill-rule="evenodd"
     id="path2" />
</svg>
